<svg xmlns="http://www.w3.org/2000/svg" fill="none" viewBox="0 0 334 166"><g clip-path="url(#a)"><path fill="#848E96" d="M71.543 165.593c-7.395-.417-14.722 1.601-21.728 6.089-7.922 5.078-16.41 17.599-19.597 25.704-2.636 6.698-3.607 11.822-4.885 13.332 0 0 3.544-1.026 5.872-2.872 0 0-4.923 8.047-10.64 10.177 0 0 18.872 4.571 30.028-7.409 0 0-.878 2.432-2.001 4.02 0 0 7.182-2.529 10.503-12.584 2.225-6.739 2.28-17.751 16.645-29.873 1.661-1.401 1.629-3.634.72-4.727-.786-.944-1.936-1.686-4.917-1.855v-.002Z"/><path fill="#A5ACB7" d="M97.25 151.001c-1.464-6.913-3.841-26.035-3.841-26.035l8.6-2.094s1.903 9.666 10.008 27.844c3.011 6.756 8.279 13.566 9.649 18.39 1.746 6.272-.965 13.444-8.637 13.074-4.254-.207-8.143-3.402-10.275-8.681-2.614-6.47-4.607-18.228-5.508-22.495l.003-.003Z"/><path fill="#A5ACB7" d="M97.762 128.561a4.43 4.43 0 1 0 0-8.861 4.43 4.43 0 0 0 0 8.861Z"/><path fill="#B6D7FF" d="M105.678 124.066c-1.526-3.449-4.042-7.515-9.09-6.582-4.123.764-5.901 3.734-5.692 9.563.384 10.568 1.088 13.748 1.088 13.748s3.296 3.429 10.569 1.727c6.856-1.605 8.093-5.375 8.093-5.375s-1.109-4.348-4.968-13.081Z"/><path fill="#B6D7FF" d="M97.843 130.925a6.772 6.772 0 1 0 0-13.544 6.772 6.772 0 0 0 0 13.544Z"/><path fill="#A5ACB7" d="M57.795 151.009c1.464-6.913 3.84-26.036 3.84-26.036l-8.599-2.094s-1.904 9.666-10.008 27.844c-3.011 6.756-8.28 13.566-9.65 18.391-1.746 6.272.966 13.443 8.638 13.073 4.253-.206 8.143-3.402 10.275-8.681 2.613-6.47 4.607-18.227 5.507-22.494l-.003-.003Z"/><path fill="#A5ACB7" d="M57.285 128.572a4.43 4.43 0 1 0 0-8.862 4.43 4.43 0 0 0 0 8.862Z"/><path fill="#B6D7FF" d="M49.343 124.052c1.525-3.448 4.041-7.514 9.089-6.582 4.123.765 5.902 3.735 5.692 9.563-.383 10.569-1.088 13.748-1.088 13.748s-3.296 3.429-10.568 1.727c-6.857-1.605-8.094-5.374-8.094-5.374s1.11-4.349 4.969-13.082Z"/><path fill="#B6D7FF" d="M57.178 130.911a6.772 6.772 0 1 0 0-13.544 6.772 6.772 0 0 0 0 13.544Z"/><path fill="#1646B2" d="M91.382 190.638c7.031 0 12.731-5.7 12.731-12.731s-5.7-12.731-12.73-12.731c-7.032 0-12.731 5.7-12.731 12.731s5.7 12.731 12.73 12.731ZM64.186 190.638c7.031 0 12.73-5.7 12.73-12.731s-5.699-12.731-12.73-12.731c-7.031 0-12.73 5.7-12.73 12.731s5.699 12.731 12.73 12.731Z"/><path fill="#848E96" d="m83.907 114.852-.008-11.206a6.305 6.305 0 0 0-6.307-6.301h-.057a6.307 6.307 0 0 0-6.307 6.31l.008 11.197s-2.328.233-4.694.489c-1.95.212-2.962 2.45-1.814 4.041 2.257 3.134 6.484 6.862 12.475 6.862s10.5-3.527 13.06-6.568c1.308-1.553.386-3.938-1.627-4.202-2.393-.312-4.732-.622-4.732-.622h.003Z"/><path fill="#90BCFC" d="M99.068 117.454c-3.424-1.088-8.43-1.866-11.349-2.1 0 0-2.56 5.111-10.163 5.111-7.605 0-9.699-5.263-9.699-5.263-2.97.239-8.496 1.012-11.692 2.151-.157.057-3 40.382-3 40.382 1.094 8.431 15.6 9.587 24.41 9.44 8.809.15 23.916-1.993 24.409-9.519 0 0-2.627-40.11-2.913-40.199l-.003-.003Z"/><path fill="#1456C9" d="M94.564 133.153H60.587l-2.524 35.448h39.022l-2.52-35.448Z"/><path fill="#1456C9" d="m94.583 133.443-1.262-17.34c-1.781-.444-4.417-.639-4.417-.639l-.106 17.977h5.785v.002ZM66.349 133.443l-.128-18.086s-2.14.191-4.335.615l-1.322 17.471h5.785Z"/><path fill="#FFD233" d="M63.654 137.896a2.176 2.176 0 1 0-.001-4.353 2.176 2.176 0 0 0 .001 4.353ZM91.395 137.896a2.176 2.176 0 1 0 0-4.351 2.176 2.176 0 0 0 0 4.351Z"/><path fill="#1646B2" d="m79.403 182.218-3.242.019-24.676-5.2 1.34-15.252a3.101 3.101 0 0 1 3.691-2.769c3.618.71 10.327 1.616 21.035 1.616 10.707 0 17.571-.928 21.191-1.64a3.099 3.099 0 0 1 3.68 2.706l1.656 15.298-24.678 5.222h.003Z"/><path fill="#1646B2" d="M64.185 190.638c7.031 0 12.731-5.7 12.731-12.731s-5.7-12.731-12.73-12.731c-7.032 0-12.732 5.7-12.732 12.731s5.7 12.731 12.731 12.731ZM91.383 190.638c7.03 0 12.73-5.7 12.73-12.731s-5.7-12.731-12.73-12.731c-7.031 0-12.731 5.7-12.731 12.731s5.7 12.731 12.73 12.731Z"/><path fill="#043A9B" d="M77.343 166.161c15.54 0 23.251-2.089 25.269-2.745l-.631-5.765s-6.946 2.923-24.543 2.923c-17.596 0-24.276-2.844-24.276-2.844l-.503 5.839c2.336.729 9.718 2.592 24.684 2.592Z"/><path fill="#848E96" d="M16.805 7.024s-7.286 23.98.925 40.594c8.08 16.35 20.003 16.462 22.358 15.195 1.058-.568 1.202-2.127 1.433-3.742.45-3.152-.03-8.39-.922-10.762-3.31-8.79-8.52-14.208-11.613-18.78C25.4 24.232 16.805 7.024 16.805 7.024Z"/><path fill="#4D5791" d="M17.703 11.642s-3.383 22.71 6.177 37.254c4.033 6.139 9.296 9.56 13.462 10.175 2.878.424 4.18 0 4.18 0 1.154-8.654 2.244-12.927 3.601-17.425l-27.42-30.004Z"/><path fill="#848E96" d="M42.418 27.41c-4.833-4.457-8.855-5.547-15.595-10.366C20.005 12.167 16.81 7.02 16.81 7.02s2.687 21.97 17.71 31.206c-2.871.876-5.99-.819-5.99-.819.73 2.076 3.393 5.924 7.484 8.263 3.331 1.904 7.612 2.82 9.617 2.437.416-.08 1.069-1.246 1.441-2.785 1.88-7.8-.527-14.107-4.653-17.915v.003ZM137.968 7.024s7.286 23.98-.924 40.594c-8.08 16.35-20.004 16.462-22.359 15.195-1.058-.568-1.202-2.127-1.433-3.742-.449-3.152.03-8.39.922-10.762 3.31-8.79 8.521-14.208 11.613-18.78 3.585-5.297 12.181-22.508 12.181-22.508v.003Z"/><path fill="#4D5791" d="M137.07 11.642s3.383 22.71-6.176 37.254c-4.034 6.139-9.296 9.56-13.463 10.175-2.877.424-4.18 0-4.18 0-1.153-8.654-2.244-12.927-3.601-17.425l27.42-30.004Z"/><path fill="#848E96" d="M112.356 27.411c4.833-4.458 8.856-5.548 15.595-10.367 6.818-4.877 10.014-10.022 10.014-10.022s-2.687 21.97-17.711 31.205c2.872.876 5.992-.819 5.992-.819-.732 2.076-3.394 5.924-7.485 8.263-3.331 1.904-7.612 2.82-9.617 2.437-.416-.08-1.068-1.246-1.441-2.785-1.879-7.8.528-14.107 4.653-17.915v.003Z"/><path fill="#B2B8BF" d="M30.221 71.391s6.032-38.475 12.459-48.138c8.765-13.17 23.947-15.508 23.947-15.508s8.153-.552 10.876-.552c2.7 0 10.786.552 10.786.552s15.181 2.293 23.947 15.508c6.426 9.663 12.459 48.138 12.459 48.138L142 83.483s-23.686 26.068-64.5 26.068c-40.812 0-64.5-26.068-64.5-26.068L30.216 71.39h.005Z"/><path fill="#5D76D1" d="M81.973 7.628c.234-2.528-1.667-4.77-4.247-5.01-2.58-.238-4.861 1.617-5.096 4.145-.234 2.527 1.668 4.77 4.248 5.009 2.58.239 4.861-1.617 5.095-4.144Z"/><path fill="#1646B2" d="M64.969 25.39c.397-1.844.644-2.067 1.158-3.005 0 0 .833-1.822 1.186-2.304 3.38-4.59 8.991-7.623 13.109-7.623 3.846 0 9.203 2.954 12.668 7.525.365.482 1.232 2.38 1.232 2.38.522.938.881 1.172 1.295 3.019l1.362 5.931 16.006 3.857c2.352.566 4.444-1.616 3.775-3.94-.748-2.598-1.551-4.768-2.41-6.316C105.674 9.31 88.532 5.702 77.262 5.705c-12.065 0-28.299 3.56-36.85 19.228-.9 1.643-1.73 3.987-2.493 6.8-.601 2.208 1.286 4.296 3.544 3.937l21.58-3.434 1.926-6.843v-.003Z"/><path fill="#4258B7" d="M98.62 27.574c-5.376-.93-11.873-1.392-18.871-1.392-5.891 0-11.425.215-16.231.938-8.01 1.207-9.312 6.144-.011 4.925 4.882-.639 10.408-.764 16.264-.767 6.918 0 13.383.37 18.871 1.227 7.357 1.148 6.479-3.81-.019-4.934l-.002.003Z"/><path fill="#043A9B" d="M99.453 19.635c-.846-1.738-1.713-3.397-2.766-4.83-3.378-4.599-8.251-7.42-12.98-8.716a54.575 54.575 0 0 0-6.444-.384 60.19 60.19 0 0 0-4.566.174c-3.348.982-6.19 3.063-8.472 5.769-2.532 3.002-3.712 5.346-4.694 7.995-1.05 2.829-2.173 8.565-3.212 13.963l6.726-1.373 1.925-6.843c.397-1.844 2.502-2.108 3.016-3.046 0 0 .688-1.518 1.276-2.407 3.258-4.939 6.853-6.127 10.971-6.127 3.846 0 8.341 1.128 11.439 6.176.316.514.993 2.04.993 2.04.522.938 2.543 1.512 2.956 3.359l1.363 5.931 6.225 1.502c-1.088-5.535-2.383-10.365-3.753-13.185l-.003.002Z"/><path fill="#5D76D1" d="M94.827 34.305c10.808.786 20.082 3.935 23.409 5.17.734.272 1.199-.13 1.036-.897-.626-2.932-1.988-8.437-2.554-10.708a1.937 1.937 0 0 0-1.257-1.365c-3.081-1.039-12.766-4.128-21.92-5.219-.59-.07-.98.345-.862.927.269 1.355.72 3.78.905 5.802.245 2.657.43 4.626.52 5.586.035.38.343.674.723.701v.003ZM67.186 21.243c-10.156.837-24.14 4.433-27.681 5.377a1.535 1.535 0 0 0-1.086 1.063 276.942 276.942 0 0 0-2.874 10.737.78.78 0 0 0 1.022.92c3.566-1.292 13.966-4.548 29.495-5.092a.778.778 0 0 0 .757-.756c.024-.908.108-2.665.377-5.317.305-3.005.62-4.947.822-6.008.106-.557-.267-.973-.83-.927l-.002.003Z"/><path stroke="#363D4C" stroke-linecap="round" stroke-linejoin="round" stroke-width="2.992" d="M69.208 85.854c1.248 1.488 4.316 2.975 8.311 2.975 3.996 0 7.12-1.487 8.312-2.975"/><path fill="#212435" d="M86.028 70.504c-2.832-2.472-13.83-2.472-17.202 0-1.483 1.124-.316 5.663 1.08 6.247 1.392.585 1.933-.538 3.864-.359 1.708.136 2.246 2.968 3.685 2.968s1.888-2.832 3.596-2.968c1.933-.225 2.472.944 3.864.36 1.439-.675 2.41-5.114 1.11-6.248h.003Z"/><path fill="#fff" d="M47.038 64.366c-.666-6.66 3.372-11.026 10.47-11.023 5.886.002 13.126 4.112 10.842 13.982-1.23 2.85-4.18 5.929-11.089 5.469-4.865-.324-9.413-3.343-10.223-8.428Z"/><path fill="#070812" d="M59.232 69.577a5.87 5.87 0 1 0 0-11.738 5.87 5.87 0 0 0 0 11.738Z"/><path fill="#fff" d="M55.245 62.685a2.247 2.247 0 1 0 0-4.493 2.247 2.247 0 0 0 0 4.493Z"/><path fill="#656D72" d="M58.668 54.026c-8.314-.686-12.097 6.375-11.63 10.337-1.125-4.835 2.394-13.427 11.796-12.578 7.552.682 12.002 7.517 9.513 15.54.873-4.792-.75-12.562-9.679-13.297v-.002Z"/><path fill="#363D4C" d="M56.143 44.594c-4.854 1.303-7.416 6.337-7.416 6.337 7.775-7.011 15.777-2.383 15.777-2.383s-3.463-5.213-8.36-3.954Z"/><path fill="#fff" d="M107.737 64.366c.667-6.66-3.372-11.026-10.47-11.023-5.886.003-13.126 4.112-10.841 13.982 1.23 2.85 4.18 5.929 11.088 5.47 4.866-.324 9.413-3.343 10.223-8.429Z"/><path fill="#070812" d="M95.543 69.577a5.87 5.87 0 1 0 0-11.738 5.87 5.87 0 0 0 0 11.738Z"/><path fill="#fff" d="M91.565 62.685a2.246 2.246 0 1 0 0-4.493 2.246 2.246 0 0 0 0 4.493Z"/><path fill="#656D72" d="M96.105 54.026c8.314-.686 12.097 6.375 11.629 10.337 1.126-4.835-2.393-13.427-11.795-12.578-7.552.682-12.002 7.517-9.513 15.54-.873-4.792.75-12.562 9.68-13.297v-.002Z"/><path fill="#363D4C" d="M90.214 48.595s8.002-4.63 15.777 2.382c0 0-2.562-5.077-7.416-6.337-4.855-1.302-8.36 3.955-8.36 3.955Z"/><rect width="91.344" height="34.996" x="218.498" y="48.399" fill="#E594C5" rx="17.498"/><path fill="#fff" d="M241.835 70.897V59.839h-6.777v11.058h-1.516V58.412h9.809v12.485h-1.516Zm4.669 3.567V62.87h1.427v.945c.553-.642 1.623-1.123 2.728-1.123 2.283 0 3.71 1.694 3.71 4.066 0 2.443-1.659 4.316-4.173 4.316-.856 0-1.695-.178-2.265-.553v3.942h-1.427Zm3.745-10.434c-.945 0-1.819.482-2.318 1.106v3.977c.713.482 1.373.624 2.14.624 1.712 0 2.782-1.23 2.782-2.924 0-1.623-.945-2.783-2.604-2.783Zm7.592 6.867h-1.427V62.87h1.427v5.975l4.637-5.975h1.427v8.026h-1.427v-5.975l-4.637 5.975Zm8.657 0V62.87c.696 0 1.748-.071 2.907-.071 2.247 0 3.46.624 3.46 2.069 0 .945-.642 1.694-1.605 1.837v.035c1.284.232 1.873.892 1.873 1.89 0 1.517-1.195 2.337-3.692 2.337-.999 0-2.212-.071-2.943-.071Zm3.139-3.603h-1.712v2.461c.428.018.999.054 1.641.054 1.32 0 2.051-.446 2.051-1.284 0-.839-.696-1.23-1.98-1.23Zm-.125-3.335c-.642 0-1.23.036-1.587.053v2.39h1.801c.945 0 1.623-.463 1.623-1.248 0-.874-.802-1.195-1.837-1.195Zm12.13 4.94.446 1.124c-.785.713-1.944 1.052-3.014 1.052-2.604 0-4.298-1.659-4.298-4.191 0-2.336 1.498-4.191 4.138-4.191 2.068 0 3.727 1.462 3.727 3.674 0 .392-.036.713-.089.963h-6.171c.125 1.516 1.231 2.407 2.8 2.407 1.035 0 1.944-.356 2.461-.838Zm-2.8-4.869c-1.462 0-2.39.91-2.55 2.14h4.869c-.072-1.32-.928-2.14-2.319-2.14Zm4.561.268V62.87h7.313v1.427h-2.943v6.599h-1.427v-6.6h-2.943Zm9.585 2.764v-8.65h1.516v8.65h-1.516Zm-.232 2.872c0-.464.393-.946 1.035-.946.553 0 .945.482.945.946 0 .535-.392 1.016-.945 1.016a.998.998 0 0 1-1.035-1.016Z"/><path fill="#E594C5" d="M294.957 82.301h-12.448a17.164 17.164 0 0 0 14.96 8.75h4.179l-3.03-1.981a8.088 8.088 0 0 1-3.661-6.769Z"/><rect width="189.434" height="34.996" x="129" y="100.686" fill="#FAEBF7" rx="17.498"/><path fill="#2C2620" d="M151.937 110.7v12.484h-1.516v-5.457c-.642.463-1.855.963-3.299.963-1.98 0-3.746-1.07-3.746-3.977V110.7h1.516v3.602c0 2.158 1.106 2.961 2.622 2.961 1.213 0 2.247-.499 2.907-.945V110.7h1.516Zm3.592 6.153-.375-1.142c.713-.446 1.677-.731 2.675-.731 2.283 0 3.086 1.195 3.086 3.282v4.922h-1.356v-1.034c-.481.606-1.248 1.159-2.568 1.159-1.462 0-2.461-.928-2.461-2.479 0-1.641 1.302-2.551 3.032-2.551.624 0 1.462.125 1.997.518 0-1.498-.232-2.533-1.819-2.533-.981 0-1.569.25-2.211.589Zm1.961 5.172c1.053 0 1.659-.553 2.069-1.035v-1.016c-.499-.357-1.106-.535-1.801-.535-.856 0-1.712.392-1.712 1.32 0 .766.517 1.266 1.444 1.266Zm11.985-1.035.677 1.035c-.677.874-1.855 1.337-3.085 1.337-2.55 0-4.298-1.658-4.298-4.191 0-2.336 1.712-4.191 4.066-4.191 1.284 0 2.408.303 3.157 1.052l-.66 1.124c-.678-.624-1.463-.838-2.301-.838-1.444 0-2.746 1.159-2.746 2.853 0 1.766 1.302 2.854 2.889 2.854.963 0 1.766-.428 2.301-1.035Zm1.416-4.405v-1.427h7.312v1.427h-2.943v6.599h-1.426v-6.599h-2.943Zm8.075 2.586c0-2.407 1.712-4.191 4.28-4.191 2.569 0 4.281 1.784 4.281 4.191 0 2.408-1.712 4.191-4.281 4.191-2.568 0-4.28-1.783-4.28-4.191Zm1.516 0c0 1.677 1.159 2.854 2.764 2.854 1.606 0 2.765-1.142 2.765-2.854 0-1.676-1.159-2.853-2.765-2.853-1.569 0-2.764 1.159-2.764 2.853Zm13.109 4.013v-8.026h5.083v1.338h-3.656v6.688h-1.427Zm13.965-8.026-3.21 8.026c-1.177 2.871-1.926 3.567-3.068 3.567-.606 0-1.087-.214-1.516-.499l.464-1.088c.268.125.571.267.892.267.678 0 1.177-.535 1.712-1.819l.178-.428-3.852-8.026h1.712l2.354 5.101c.179.41.321.803.482 1.213.107-.392.232-.803.374-1.231l1.855-5.083h1.623Zm6.385 8.026v-6.599h-2.818l-.089 1.356c-.357 4.565-1.57 5.35-3.228 5.35l-.107-1.391c.606.053 1.747-.535 1.944-4.245l.142-2.497h5.582v8.026h-1.426Zm7.512-8.026h2.497v8.026h-1.427v-2.675h-1.551l-1.962 2.675h-1.73l2.318-3.032c-.82-.196-1.73-.999-1.73-2.318 0-1.374.91-2.676 3.585-2.676Zm-2.069 2.711c0 .821.785 1.302 1.498 1.302h1.641v-2.675h-1.302c-1.337 0-1.837.624-1.837 1.373Zm13.491 3.318.446 1.123c-.785.714-1.944 1.052-3.014 1.052-2.604 0-4.299-1.658-4.299-4.191 0-2.336 1.499-4.191 4.138-4.191 2.069 0 3.728 1.463 3.728 3.674 0 .392-.036.713-.09.963h-6.17c.124 1.516 1.23 2.408 2.8 2.408 1.034 0 1.944-.357 2.461-.838Zm-2.8-4.869c-1.463 0-2.39.909-2.551 2.14h4.869c-.071-1.32-.927-2.14-2.318-2.14Zm5.734 6.866v-8.026h1.427v6.688h2.943v-6.688h1.426v6.688h2.943v-6.688h1.427v8.026h-10.166Zm12.749 0v-8.026h1.427v2.408h1.462c2.462 0 3.175 1.338 3.175 2.764 0 1.409-.82 2.854-3.353 2.854h-2.711Zm2.622-4.28h-1.195v2.942h1.177c1.409 0 1.944-.517 1.944-1.462 0-.963-.553-1.48-1.926-1.48Zm8.826.267c0-2.407 1.712-4.191 4.28-4.191 2.568 0 4.28 1.784 4.28 4.191 0 2.408-1.712 4.191-4.28 4.191-2.568 0-4.28-1.783-4.28-4.191Zm1.516 0c0 1.677 1.159 2.854 2.764 2.854 1.605 0 2.764-1.142 2.764-2.854 0-1.676-1.159-2.853-2.764-2.853-1.569 0-2.764 1.159-2.764 2.853Zm7.684 5.975v-3.3h.998c.536-.677 1.088-2.372 1.231-4.565l.125-2.123h5.475v6.688h1.338v3.3h-1.338v-1.962h-6.492v1.962h-1.337Zm3.602-7.312c-.178 2.051-.713 3.513-1.088 4.012h3.888v-5.35h-2.71l-.09 1.338Zm13.003 5.35v-3.389h-4.459v3.389h-1.427v-8.026h1.427v3.3h4.459v-3.3h1.427v8.026h-1.427Zm4.435-6.331-.374-1.142c.713-.446 1.676-.731 2.675-.731 2.283 0 3.085 1.195 3.085 3.282v4.922h-1.355v-1.034c-.482.606-1.249 1.159-2.568 1.159-1.463 0-2.462-.928-2.462-2.479 0-1.641 1.302-2.551 3.032-2.551.625 0 1.463.125 1.998.518 0-1.498-.232-2.533-1.819-2.533-.981 0-1.57.25-2.212.589Zm1.962 5.172c1.052 0 1.659-.553 2.069-1.035v-1.016c-.5-.357-1.106-.535-1.802-.535-.856 0-1.712.392-1.712 1.32 0 .766.518 1.266 1.445 1.266Zm10.771-8.115c0-1.088-.909-1.962-2.175-1.962-1.071 0-1.873.464-2.497 1.32l-.856-.945c.642-1.035 1.926-1.802 3.442-1.802 2.3 0 3.62 1.409 3.62 3.086 0 3.531-3.923 3.246-3.424 5.957l-1.284.017c-.642-3.317 3.174-2.96 3.174-5.671Zm-3.531 8.311c0-.464.392-.945 1.035-.945.552 0 .945.481.945.945 0 .535-.393 1.017-.945 1.017a.998.998 0 0 1-1.035-1.017Z"/><path fill="#FAEBF7" d="M145.533 134.589h12.448a17.164 17.164 0 0 1-14.959 8.749h-4.179l3.029-1.981a8.088 8.088 0 0 0 3.661-6.768Z"/></g><defs><clipPath id="a"><path fill="#fff" d="M0 .453h334v165H0z"/></clipPath></defs></svg>