<svg xmlns="http://www.w3.org/2000/svg" fill="none" viewBox="0 0 583 158"><path fill="#C6B9FE" d="m292.79 154.438 20.866-53.408-50.955 4.625 30.089 48.783Z"/><path fill="#FFBE4D" d="m148.657 141.052 38.593-42.466-49.327-13.813 10.734 56.279ZM423.594 126.443l6.841-56.88-48.244 17.2 41.403 39.68Z"/><path fill="#FCA7E2" d="m356.94 145.916 14.675-55.462-50.201 10.404 35.526 45.058ZM223.381 154.607l29.719-49.012-51.139-4.208 21.42 53.22ZM79.664 120.08l45.402-34.985L79.034 62.72l.63 57.359ZM483.58 101.593l1.963-57.283-46.654 21.305 44.691 35.978Z"/><path fill="#E594C5" fill-rule="evenodd" d="M.835 19.591c12.477 12.09 27.152 23.22 43.618 33.175C99.457 86.019 175.164 106.67 258.56 106.67c83.395 0 159.102-20.651 214.106-53.904 18.534-11.205 34.799-23.9 48.215-37.775l-6.748-5.956c-12.705 13.086-28.212 25.201-46.123 36.029C414.617 77.343 340.573 97.67 258.56 97.67c-82.014 0-156.057-20.327-209.45-52.606-15.794-9.548-29.718-20.096-41.501-31.43L.835 19.592Z" clip-rule="evenodd"/></svg>