<svg xmlns="http://www.w3.org/2000/svg" fill="none" viewBox="0 0 32 32"><path fill="#CC2E8D" fill-rule="evenodd" d="M14.671 2h9.058c.854 0 1.568 0 2.15.048.608.05 1.179.157 1.719.432a4.4 4.4 0 0 1 1.922 1.922c.275.54.383 1.11.432 1.719C30 6.703 30 7.417 30 8.27v9.058c0 .854 0 1.568-.048 2.15-.05.608-.157 1.179-.432 1.719a4.4 4.4 0 0 1-1.922 1.922c-.54.275-1.11.383-1.718.432-.583.048-1.297.048-2.151.048H23.6v.129c0 .854 0 1.568-.048 2.15-.05.608-.157 1.179-.432 1.719a4.4 4.4 0 0 1-1.922 1.922c-.54.275-1.11.383-1.718.432-.583.048-1.297.048-2.151.048H8.27c-.854 0-1.568 0-2.15-.048-.608-.05-1.179-.157-1.719-.432a4.4 4.4 0 0 1-1.922-1.922c-.275-.54-.383-1.11-.432-1.718C2 25.297 2 24.582 2 23.729V14.67c0-.854 0-1.568.048-2.15.05-.608.157-1.179.432-1.719A4.4 4.4 0 0 1 4.402 8.88c.54-.275 1.11-.383 1.719-.432C6.703 8.4 7.417 8.4 8.27 8.4H8.4v-.129c0-.854 0-1.568.048-2.15.05-.608.157-1.179.432-1.719a4.4 4.4 0 0 1 1.922-1.922c.54-.275 1.11-.383 1.719-.432C13.103 2 13.816 2 14.67 2ZM8.4 10.8h-.08c-.916 0-1.53 0-2.004.04-.46.037-.68.104-.824.178a2 2 0 0 0-.874.874c-.074.145-.14.365-.178.824-.04.473-.04 1.088-.04 2.004v8.96c0 .916 0 1.53.04 2.004.037.46.104.68.178.824a2 2 0 0 0 .874.874c.145.074.365.14.824.178.473.04 1.088.04 2.004.04h8.96c.916 0 1.53 0 2.004-.04.46-.037.68-.104.824-.178a2 2 0 0 0 .874-.874c.074-.145.14-.365.178-.824.04-.473.04-1.088.04-2.004v-.08h-6.529c-.854 0-1.568 0-2.15-.048-.608-.05-1.179-.157-1.719-.432a4.4 4.4 0 0 1-1.922-1.922c-.275-.54-.383-1.11-.432-1.718-.048-.583-.048-1.297-.048-2.151V10.8Zm6.32 10.4c-.916 0-1.53 0-2.004-.04-.46-.037-.68-.104-.824-.178a2 2 0 0 1-.874-.874c-.074-.145-.14-.365-.178-.824-.04-.473-.04-1.088-.04-2.004V8.32c0-.916 0-1.53.04-2.004.037-.46.104-.68.178-.824a2 2 0 0 1 .874-.874c.145-.074.365-.14.824-.178.473-.04 1.088-.04 2.004-.04h8.96c.916 0 1.53 0 2.004.04.46.037.68.104.824.178a2 2 0 0 1 .874.874c.074.145.14.365.178.824.04.473.04 1.088.04 2.004v8.96c0 .916 0 1.53-.04 2.004-.037.46-.104.68-.178.824a2 2 0 0 1-.874.874c-.145.074-.365.14-.824.178-.473.04-1.088.04-2.004.04h-8.96Z" clip-rule="evenodd"/></svg>