<svg xmlns="http://www.w3.org/2000/svg" fill="none" viewBox="0 0 375 217"><path fill="#7A001D" d="M237.52 212.345c7.728 11.245 27.416 14.951 37.276 4.911 16.279-16.577-2.104-41.913 5.781-48.823 7.789-6.821 18.387.756 15.678 13.547 0 0 14.611-4.765 10.399-20.727 0 0 2.643 1.725 3.962 7.747 0 0 2.448-22.467-20.661-30.512-23.11-8.045-41.322 8.991-38.037 31.552 3.157 21.696 7.062 24.244 2.099 30.072-4.959 5.828-15.008-1.121-18.184.241-3.177 1.361-1.504 7.35 1.682 11.996l.005-.004Z"/><path fill="#DB652A" d="m247.579 214.926-1.735 29.107c-8.816.965-18.548.326-18.548.326l-2.189-29.622 22.472.189Z"/><path fill="#DB652A" d="M236.348 225.665c-6.211 0-11.245-5.034-11.245-11.245 0-6.211 5.034-11.245 11.245-11.245 6.211 0 11.245 5.034 11.245 11.245 0 6.211-5.034 11.245-11.245 11.245Z"/><path fill="#CE5B29" d="m202.442 213.167 2.558 29.59c8.839.714 18.548-.194 18.548-.194l1.38-29.67-22.486.279v-.005Z"/><path fill="#CE5B29" d="M213.692 224.133c-6.211 0-11.245-5.034-11.245-11.245 0-6.211 5.034-11.245 11.245-11.245 6.211 0 11.245 5.034 11.245 11.245 0 6.211-5.034 11.245-11.245 11.245ZM211.253 160.17a7.85 7.85 0 0 1-7.851-7.851 7.847 7.847 0 0 1 7.851-7.851 7.847 7.847 0 0 1 7.851 7.851 7.847 7.847 0 0 1-7.851 7.851Z"/><path fill="#CE5B29" d="M208.932 144.822c-5.492 1.929-13.344 4.491-18.656 2.562-7.904-2.874-10.678-10.423-11.69-14.866-.832-3.663-1.687-6.537-4.5-6.329-3.701.274-2.968 4.23-2.184 7.752-3.067-.364-7.936 1.427-8.56 6.343-.184 1.461.879 4.24 1.678 5.639 13.911 24.476 40.069 18.577 49.859 13.363-2.283-3.2-5.947-14.459-5.947-14.459v-.005Z"/><path fill="#CE5B29" d="M179.739 142.492c2.345 1.805 5.554 2.117 4.874 1.404-1.673-1.763 0-3.758-1.626-7.478-.842-1.929-3.016-2.86-4.235-2.293-3.342 1.551-1.693 6.306.992 8.367h-.005Z"/><path fill="#912D0A" d="M173.188 138.328c1.134 2.793 6.107 2.651 7.147 2.037-2.817.227-6.022-1.711-5.894-3.621.132-2.047 2.637-3.006 6.05-2.628-5.653-1.773-8.527 1.106-7.303 4.207v.005Z"/><path fill="#912D0A" d="M175.528 142.156c.435-1.078.331-1.739.099-2.727-.165-.69-1.044-.804-.955-.099.071.557.147 1.271-.123 1.975-.33.865-1.332 1.574-2.491 1.565-.226.071-.397 1.248-.16 1.229 1.153.132 2.888-.099 3.635-1.952l-.005.009Z"/><path fill="#912D0A" d="M171.798 144.501c1.749-2.676-1.356-6.353-3.521-7.209 4.779 4.756 1.796 9.17-2.07 7.336 1.9 2.463 4.429 1.65 5.591-.132v.005Z"/><path fill="#FFC4C0" d="M217.114 158.927c2.595-2.458 3.46-6.239 2.425-9.033-1.266-3.408-4.008-6.013-7.993-6.178-7.837-.321-18.155 2.86-18.155 2.86-.256 7.79 2.576 16.033 7.86 21.823 0 0 10.853-4.722 15.868-9.477l-.005.005Z"/><path fill="#FFC4C0" d="M211.111 161.286a8.794 8.794 0 0 1-8.792-8.792 8.793 8.793 0 1 1 8.792 8.792Z"/><path fill="#CE5B29" d="m220.121 140.743-.052-12.687c-.185-3.587 2.084-6.598 5.681-6.556h.61a6.236 6.236 0 0 1 6.15 5.909l.089 13.471 5.734 1.248c2.43.529 3.692 3.2 2.586 5.426-2.354 4.737-7.592 8.277-14.724 8.197-7.809-.086-12.484-2.525-14.417-7.251a3.806 3.806 0 0 1 1.966-4.912l6.377-2.845Z"/><path fill="#FFE8E3" d="M210.596 143.853c1.933-.733 3.002-1.101 7.303-2.113-2.463 1.555-3.266 7.648 1.026 8.201 7.676.993 16.657-6.641 17.834-8.153.922.075 3.838.406 6.239.902 3.011.624 5.531 1.352 6.982 1.872 5.294 1.924 6.447 7.123 5.166 11.07-1.304 4.018-3.819 5.304-4.547 5.517-3.545 1.035-5.554-.038-5.979 20.325-.076 3.715-4.997 6.721-8.447 6.684l-23.36-.26c-3.455-.038-5.795-3.054-6.334-6.727-3.63-24.768.889-32.033 1.933-34.156.308-.628 1.541-2.911 2.194-3.157h-.005l-.005-.005Z"/><path fill="#FF5050" d="m210.554 143.626 3.989-1.058c-7.071 2.925-6.991 13.811-6.991 13.811 1.683.544 7.303 3.872 9.34 6.637 4.562-3.049 12.848-5.644 16.691-6.254 0 0 .331-12.677 9.883-13.972 0 0 1.806.302 3.286.695 2.06.543 3.219 1.082 3.219 1.082-5.124-.104-11.595 3.848-9.473 11.141 1.149 3.942 6.599 6.05 10.096 5.45-1.408.369-3.039 1.91-3.389 2.841-3.063 8.045-1.082 15.849-1.082 15.849-.052 5.129-4.089 16.345-8.598 18.023 0 0-8.844 3.9-16.558 3.493-4.103-.217-9.846-3.795-9.846-3.795-4.481-1.773-7.086-10.598-7.024-15.736 0 0-1.574-13.49-1.333-16.69.629-8.371 2.902-20.118 7.799-21.517h-.009Z"/><path fill="#FF7171" d="m207.33 184.178 12.058 4.627 23.904-6.868c1.63-.633 3.351.392 3.838 2.184 3.256 11.93 9.052 35.687 11.897 47.415 0 0-8.645 10.895-34.298 10.611-27.855-.312-33.423-11.363-33.423-11.363 3.091-11.666 8.792-33.565 11.878-45.458.468-1.791 2.525-1.805 4.136-1.144l.01-.004Z"/><path fill="#FFD233" d="m247.309 184.788-29.684 7.614-14.606-6.433 1.073-4.136 13.377 5.639 28.649-7.624 1.191 4.944v-.004Z"/><path fill="#680023" d="M206.838 52.933s-1.735-18.274-12.583-21.72c-9.188-2.902-17.564.889-22.022 9.903-5.19 10.489-3.431 21.488 5.398 25.014 6.797 2.718 9.402-3.493 9.402-3.493s1.29 3.19-1.877 8.721c3.432-.813 8.097-6.008 7.719-11.921-.298-4.438-1.418-8.886 1.319-11.117 3.427-2.799 7.397 4.59 7.397 4.59l4.018 9.982c.875 1.532 2.973.147 2.439-1.607l-1.205-8.347-.005-.005Z"/><path fill="#FF7171" d="M205.425 51.713a5 5 0 1 1 0-10.002c2.76 0 5.001 2.24 5.001 5.001a5.003 5.003 0 0 1-5.001 5.001Z"/><path fill="#FFD233" d="M200.244 57.806a5 5 0 1 1 0-10.002 5.003 5.003 0 0 1 5.001 5.001c0 2.76-2.24 5.001-5.001 5.001Z"/><path fill="#DB652A" d="M224.479.295c.52.246.926.714 1.243 1.366 1.834 3.356 3.214 12.867 3.64 21.73a4.115 4.115 0 0 1-3.082 4.183c-1.527.392-3.399.973-5.304 1.375-1.763.373-3.375.68-4.722.898-.86.137-1.621.19-2.24.199-1.021.014-1.92-.7-2.104-1.707a20.299 20.299 0 0 1-.283-2.25c-.861-12.185 8.182-28.01 12.856-25.785l-.004-.009Z"/><path fill="#FED5C3" d="M221.69 9.3c1.427.76.7 5.166.926 9.226.1 2.17.227 3.753.402 5.072.029.237.374 2.175 1.47 4.458-1.111.307-2.311.638-3.521.893-1.319.279-2.553.52-3.659.714-.51-.927-.945-1.872-1.181-2.524-2.922-8.064 3.067-19.168 5.558-17.835l.005-.004Z"/><path fill="#DB652A" d="M244.289 24.284c.577-1.541 1.224-3.484 1.905-6.462 1.451-6.471 2.377-14.29 5.36-15.064.78-.208 1.598.066 2.415.713.175.133 7.303 5.474 9.166 16.398 1.281 7.496-.095 12.1-.851 13.107-.52.686-2.094 1.692-3.654 2.094-.874.227-1.744.085-2.5-.094-1.749-.421-4.061-1.678-6.897-3.815-4.349-3.27-5.483-5.44-4.944-6.878Z"/><path fill="#FED5C3" d="M246.95 29.285a49.527 49.527 0 0 0 1.399-3.385c.407-1.267.823-2.798 1.31-4.911.954-3.956 1.035-8.414 2.576-8.91 2.689-.86 6.858 11.17 2.533 18.572-.501.85-1.215 2.051-1.909 2.93-1.092-.619-2.302-1.423-3.626-2.42-.893-.671-1.65-1.3-2.283-1.881v.005Z"/><path fill="#DB652A" d="M178.785 81.852c4.882-7.535 6.787-12.65 8.877-23.479 2.089-10.767 6.102-17.531 7.539-19.795 1.81-2.846 14.535-18.53 40.286-16.185 25.752 2.344 35.556 19.994 36.685 23.209 1.622 4.632 3.545 9.855 3.867 20.812.109 10.97 1.073 14.426 3.848 24.154 2.027 7.104 6.863 24.91-5.101 35.371-10.328 9.032-28.441 13.764-49.797 11.887-21.408-2.013-39.152-10.989-48.662-22.613-7.842-10.394-3.257-24.536 2.458-33.361Z"/><path fill="#FED5C3" d="M175.159 113.488c-.364-9.264 18.841-20.561 41.521-18.85 25.52 1.933 51.309 17.115 47.381 37.961-12.37 5.743-29.812 7.667-48.535 3.965-22.896-4.523-37.914-17.583-40.371-23.081l.004.005Z"/><path fill="#7A001D" d="M189.68 50.513c1.583-4.817 3.914-10.03 7.435-14.634 6.022-7.88 20.316-15.188 38.514-13.533 18.496 1.682 30.621 11.826 35.229 20.301 8.159 15.013 3.158 24.684 7.582 42.73-23.705-21.071-9.936-43.566-56.457-47.537-28.503-2.43-33.882 17.485-32.298 12.673h-.005Z"/><path fill="#7A001D" d="m207.718 44.822-3.125 6.078c-7.071-1.522-6.537-2.708-6.537-2.708.794-8.759 7.482-15.306 16.799-14.455l18.959 1.725c9.322.846 16.227 8.632 15.433 17.39 0 0-1.545 1.045-8.456 1.29l-1.957-6.484-2.321 6.438c-3.71 0-7.875-.137-13.892-.686-6.05-.553-10.162-1.144-13.783-1.791l-1.13-6.793.01-.005ZM269.048 57.612s6.419-17.494 19.569-18.562c11.136-.889 19.81 5.039 22.599 14.341 3.389 11.34-1.324 21.725-12.214 23.308-8.381 1.215-9.823-5.403-9.823-5.403s-2.24 2.846.01 8.925c-3.701-1.522-7.728-7.582-5.861-13.287 1.413-4.278 3.767-8.381 1.205-11.146-3.21-3.46-9.515 2.916-9.515 2.916l-6.986 8.906c-1.366 1.309-3.408-.487-2.378-2.09l3.399-7.903-.005-.005Z"/><path fill="#FF7171" d="M272.035 56.832a5 5 0 1 1 0-10.002 5.003 5.003 0 0 1 5.001 5.001c0 2.76-2.24 5.001-5.001 5.001Z"/><path fill="#FFD233" d="M275.817 63.88a5 5 0 1 1 0-10.002c2.76 0 5.001 2.24 5.001 5.001a5.003 5.003 0 0 1-5.001 5.001Z"/><path fill="#5B0D00" d="M211.702 93.546c.175-1.896 3.21-2.061 5.479-1.069 2.278-.51 5.847.142 5.544 2.07-.302 1.93-4.145 5.172-5.904 5.011-1.909-.175-5.341-3.606-5.124-6.012h.005Z"/><path fill="#fff" d="M239.746 75.272c10.281-.16 12.99 9.41 12.99 9.41s-2.406 7.895-11.614 8.949c-8.211.94-13.552-3.682-13.552-3.682s1.3-14.29 12.172-14.672l.004-.005Z"/><path fill="#000016" d="M240.091 92.42a7.04 7.04 0 0 1-7.038-7.038 7.04 7.04 0 0 1 7.038-7.038 7.04 7.04 0 0 1 7.039 7.038 7.04 7.04 0 0 1-7.039 7.039Z"/><path fill="#fff" d="M232.046 80.717c-.26 1.413.724 2.808 2.142 3.006 1.351.256 2.68-.737 2.935-2.146.26-1.413-.723-2.807-2.141-3.006-1.409-.321-2.742.667-2.936 2.146Z"/><path fill="#7C2900" d="M237.61 73.428c7.057-1.753 13.845 2.817 15.873 9.114 0 0-.402 1.271-.752 2.131-.09-.25-4.093-9.41-13.037-8.815-10.309.685-12.006 13.457-12.119 14.09-.208-1.29.189-14.066 10.035-16.515v-.005Z"/><path fill="#7C2900" d="M241.24 71.018a1.394 1.394 0 0 1 1.645-1.083 1.393 1.393 0 0 1 1.082 1.645l-.458 2.212a1.394 1.394 0 0 1-1.645 1.083 1.394 1.394 0 0 1-1.082-1.645l.458-2.212ZM247.451 72.474a1.396 1.396 0 0 1 1.924-.412 1.4 1.4 0 0 1 .411 1.929l-1.163 1.796a1.4 1.4 0 0 1-1.928.411 1.395 1.395 0 0 1-.411-1.923l1.162-1.797.005-.004ZM251.776 76.454a1.392 1.392 0 1 1 2.07 1.862l-1.271 1.408a1.39 1.39 0 0 1-1.966.104 1.39 1.39 0 0 1-.104-1.966l1.271-1.408Z"/><path fill="#fff" d="M200.693 71.722c-9.056-1.92-13.088 7.038-13.088 7.038s.77 8.182 8.725 10.796c7.095 2.33 12.602-1.31 12.602-1.31s1.3-14.288-8.239-16.529v.005Z"/><path fill="#000016" d="M199.762 88.753a7.04 7.04 0 0 1-7.038-7.038 7.04 7.04 0 0 1 7.038-7.039 7.04 7.04 0 0 1 7.038 7.038 7.04 7.04 0 0 1-7.038 7.039Z"/><path fill="#fff" d="M191.717 77.049c-.26 1.413.723 2.808 2.141 3.006 1.352.255 2.681-.737 2.936-2.146.26-1.413-.723-2.807-2.141-3.006-1.409-.321-2.742.666-2.936 2.146Z"/><path fill="#7C2900" d="M202.901 70.275c-5.937-2.935-12.711.402-15.584 6.25 0 0 .137 1.318.297 2.226.123-.232 5.233-8.56 13.027-6.443 8.991 2.44 8.301 15.305 8.296 15.944.406-1.239 2.24-13.878-6.031-17.977h-.005Z"/><path fill="#7C2900" d="M198.902 65.832c-.69.024-1.248.667-1.238 1.437l.028 2.255c.009.766.577 1.37 1.271 1.347.691-.023 1.248-.666 1.239-1.437l-.029-2.254c-.009-.766-.576-1.371-1.271-1.348ZM192.729 66.948c-.643.302-.95 1.12-.69 1.824l.718 1.967c.26.709.993 1.035 1.631.732.643-.302.95-1.12.69-1.824l-.719-1.967c-.259-.709-.992-1.035-1.63-.732ZM188.158 70.328c-.596.406-.785 1.266-.425 1.919l.879 1.607c.354.652 1.129.846 1.72.44.596-.407.785-1.267.426-1.92l-.879-1.607c-.355-.652-1.13-.846-1.721-.44ZM234.292 62.32s11.94-3.493 19.295 8.05c0 0-1.452-7.402-7.162-10.574-5.776-3.19-12.138 2.524-12.138 2.524M208.493 59.89s-10.12-5.397-18.26 4.784c0 0 2.316-7.062 7.828-9.26 5.573-2.198 10.432 4.477 10.432 4.477Z"/><path fill="#DB652A" d="M252.736 84.688s-2.198 4.008-11.269 5.913c-7.974 1.678-13.892-.657-13.892-.657s4.779 8.99 15.608 8.267c11.855-.79 9.557-13.528 9.557-13.528l-.004.005ZM187.61 78.76s1.281 4.481 8.99 7.757c6.41 2.723 12.337 1.735 12.337 1.735s-5.71 8.035-15.154 5.469c-10.338-2.808-6.173-14.96-6.173-14.96Z"/><path fill="#ED6D83" d="M209.429 115.596c1.753 1.806 3.639 2.61 7.156 2.936 3.55.321 5.502-.482 7.601-1.787.69-.506 3.209-2.16 4.259-4.807.817-2.061 1.328-4.325.477-5.767-.605-1.026-2.817-.354-5.091-.44-1.805-.066-4.013-.047-6.433-.283-2.188-.208-4.098-.534-5.79-.95-1.849-.454-3.787-1.248-4.902-.298-1.281 1.087-1.593 3.096-.723 5.979.846 2.808 2.812 4.765 3.441 5.413l.005.004Z"/><path fill="#FFA0B5" d="M209.429 115.591c1.63 1.764 3.639 2.61 7.156 2.936 3.55.321 6.15-.402 8.99-2.836-2.453-1.957-4.859-2.293-8.494-2.628-3.639-.331-5.989.127-7.652 2.524v.004Z"/><path fill="#fff" d="M212 104.597c1.361.251 2.846.572 4.462.756 1.919.213 3.725.256 5.322.326-.207 2.227-1.129 4.207-5.27 3.829-3.744-.345-4.741-2.089-4.509-4.906l-.005-.005Z"/><path fill="#DB652A" d="M241.665 157.722c3.839 4.935 6.571 10.399 6.798 14.833.345 6.83-5.266 7.009-10.499 8.744-5.903 1.952-9.538 5.493-5.998 11.69 2.85 4.991 13.476 5.289 20.368 1.427 22.561-12.644 8.99-38.514 1.319-46.819-3.323 1.257-9.511 6.513-11.988 10.125Z"/><path fill="#DB652A" d="M247.825 160.704a7.85 7.85 0 0 1-7.852-7.851 7.847 7.847 0 0 1 7.852-7.851 7.847 7.847 0 0 1 7.851 7.851 7.847 7.847 0 0 1-7.851 7.851Z"/><path fill="#A0370D" d="M243.509 189.16s-5.218-2.014-8.801 1.12c-1.608 1.409-1.272 3.668-1.272 3.668s.539-1.068 2.061-2.151c3.432-2.443 8.012-2.637 8.012-2.637ZM241.661 184.579s-5.219-2.013-8.802 1.121c-1.607 1.408-1.271 3.668-1.271 3.668s.501-1.144 2.018-2.227c3.432-2.443 8.05-2.566 8.05-2.566l.005.004Z"/><path fill="#FFD8D2" d="M253.903 146.415c-2.68-2.363-6.518-2.898-9.208-1.621-3.285 1.56-5.639 4.519-5.45 8.508.369 7.832 4.448 17.834 4.448 17.834 7.781-.43 15.745-3.975 21.049-9.751 0 0-5.663-10.394-10.839-14.97Z"/><path fill="#FFD8D2" d="M248.028 161.749a8.794 8.794 0 0 1-8.792-8.792 8.794 8.794 0 0 1 8.792-8.792 8.794 8.794 0 0 1 8.792 8.792 8.794 8.794 0 0 1-8.792 8.792Z"/><path fill="#fff" d="m144.122 51.396-21.378 5.92a4.49 4.49 0 0 0-3.129 5.527l5.921 21.378a4.49 4.49 0 0 0 5.526 3.129l21.378-5.92a4.49 4.49 0 0 0 3.129-5.527l-5.921-21.378a4.49 4.49 0 0 0-5.526-3.129Z"/><path fill="#FFD333" d="M139.75 59.194c-1.867.515-3.29 1.9-3.952 3.583-1.432-1.102-3.332-1.565-5.227-1.04a5.902 5.902 0 0 0-4.117 7.274c1.385 5.002 11.098 8.58 13.287 9.34a.643.643 0 0 0 .728-.203c1.451-1.767 7.95-9.935 6.598-14.809-.907-3.157-4.183-5.01-7.317-4.14v-.005Z"/><path fill="#fff" d="M137.556 96.742 98.231 85.436a6.072 6.072 0 0 0-7.514 4.158l-5.719 19.892A6.073 6.073 0 0 0 89.156 117l39.325 11.306a6.072 6.072 0 0 0 7.514-4.158l5.719-19.892a6.072 6.072 0 0 0-4.158-7.514Z"/><path fill="#FFD333" d="M104.835 104.486a5.176 5.176 0 1 0 0-10.352 5.176 5.176 0 0 0 0 10.352ZM100.144 106.014l5.118 1.471a6.93 6.93 0 0 1 4.742 8.568l-18.433-5.299a6.93 6.93 0 0 1 8.568-4.742l.005.002ZM113.174 111.67l.612-2.132 2.875.827 1.156-4.011-2.81-.807.613-2.132 2.157.618c.523.15.857-.035 1.011-.558l.025-.09 2.809.808-2.017 7.018 2.376.683-.613 2.132-8.194-2.356ZM124.143 114.823c-.703-.389-1.201-.747-1.5-1.066l.698-2.431c.294.388.747.787 1.36 1.205.613.419 1.28.728 2.012.942.743.214 1.31.259 1.719.134.403-.124.658-.358.757-.707.1-.349.025-.677-.219-.991-.244-.309-.683-.558-1.31-.738a3.56 3.56 0 0 0-1.096-.154c-.339.01-.593.06-.767.14l-1.998-.573 1.883-5.216 7.537 2.167-.677 2.351-5.251-1.509-.558 1.539.065.02c.169-.065.438-.085.812-.065.374.02.797.1 1.275.239.852.245 1.545.583 2.068 1.007.523.423.871.891 1.046 1.404a2.55 2.55 0 0 1 .03 1.565 2.639 2.639 0 0 1-.942 1.385c-.468.363-1.081.587-1.848.662-.762.08-1.644-.025-2.645-.314-.932-.269-1.749-.598-2.451-.986v-.01Z"/><path fill="#A3CBE5" d="M73.271 151.817a1.593 1.593 0 0 1-1.115-.468 1.592 1.592 0 0 1-.468-1.115v-7.76c0-.42.167-.823.465-1.118a1.579 1.579 0 0 1 2.237 0c.297.297.464.7.464 1.118v7.756a1.592 1.592 0 0 1-1.583 1.587Z"/><path fill="#D3A6DD" d="M206.58 216.79H73.405c-6.706 0-12.053-5.605-11.734-12.304l3.579-75.505c.297-6.264 5.462-11.19 11.734-11.19h126.8c6.319 0 11.505 4.998 11.739 11.312l2.797 75.504c.246 6.653-5.081 12.183-11.74 12.183Z"/><path fill="#C78AD6" d="M141.058 167.457a12.903 12.903 0 0 0-9.142 3.783 12.936 12.936 0 0 0-3.783 9.141v53.808h25.85v-53.808a12.907 12.907 0 0 0-3.785-9.141 12.866 12.866 0 0 0-4.193-2.802 12.937 12.937 0 0 0-4.947-.981Z"/><path fill="#BD78CE" d="M142.277 189.115a3.445 3.445 0 0 1 3.843-3.419 4.98 4.98 0 1 0-2.589 6.076 3.429 3.429 0 0 1-1.254-2.657Z"/><path fill="#B36EC4" d="M141.987 179.553h-1.192v-1.349c0-.114.093-.208.207-.208h.776c.114 0 .207.094.207.208v1.349h.002Z"/><path fill="#B36EC4" d="M147.026 183.99a.926.926 0 0 1-.92.802h-9.421a.927.927 0 0 1-.913-1.097l.005-.027a5.939 5.939 0 0 1 .188-.705 5.684 5.684 0 0 1 1.048-1.859 5.68 5.68 0 0 1 1.522-1.273 5.676 5.676 0 0 1 3.505-.728c.163.019.325.044.483.075.022.004.041.009.062.012a5.752 5.752 0 0 1 4.163 3.564 5.485 5.485 0 0 1 .271.944.867.867 0 0 1 .007.292Z"/><path fill="#F2C8FC" d="m82.887 145.737 20.727-7.886a1.712 1.712 0 0 1 2.193.956l6.124 15.146a1.711 1.711 0 0 1-.933 2.221l-16.327 6.74-8.439-4.172-4.322-10.768a1.71 1.71 0 0 1 .977-2.237Z"/><path fill="#E5BBEF" d="M86.23 158.739h5.29l3.149 4.171-8.438-4.171Z"/><path fill="#F2C8FC" d="m85.766 180.485 15.811 4.302a1.77 1.77 0 0 1 1.247 2.154l-4.117 15.718a1.767 1.767 0 0 1-2.098 1.276l-11.7-2.631-4.273-8.387 2.958-11.18a1.764 1.764 0 0 1 2.172-1.252Z"/><path fill="#E5BBEF" d="m80.635 192.917 4.24 3.161.033 5.226-4.273-8.387Z"/><path fill="#D3A6DD" d="M92.926 149.829a.438.438 0 0 1-.376-.213l-1.377-2.275a.44.44 0 0 1 .751-.456l1.377 2.276a.44.44 0 0 1-.375.668ZM94.908 148.603a.442.442 0 0 1-.429-.343l-.478-2.101a.438.438 0 1 1 .856-.196l.478 2.102a.438.438 0 0 1-.427.538ZM93.754 153.865c-1.349 0-2.395-.735-2.861-1.278a.44.44 0 0 1 .667-.575c.065.074 1.517 1.69 3.66.598 1.999-1.02 1.573-3.643 1.554-3.753a.44.44 0 0 1 .867-.152c.025.138.56 3.37-2.02 4.687-.665.34-1.293.473-1.867.473ZM106.524 153.153l.152-.1.151-.101.302-.202.303-.202a.24.24 0 0 0 .074-.093.207.207 0 0 0 .014-.118.174.174 0 0 0-.048-.107.172.172 0 0 0-.105-.053l-.762-.102-.763-.1-.06-.011c-.026-.003-.054-.005-.056.004a.251.251 0 0 1-.026-.069c-.006-.021-.011-.042-.018-.062l-.065-.188-.067-.186-.132-.376-.134-.377a.183.183 0 0 0-.068-.095.193.193 0 0 0-.111-.04.216.216 0 0 0-.199.103l-.418.664-.419.663c-.228.014-.457.026-.686.038-.23.011-.457.02-.689.023a.18.18 0 0 0-.121.046.212.212 0 0 0 .033.339l.304.174.304.174.169.097.171.097c.026.016.09.042.144.067a.28.28 0 0 1 .125.088.363.363 0 0 1-.021.16c-.019.067-.041.132-.048.16l-.038.179-.039.178-.074.387-.083.376a.189.189 0 0 0 .103.22c.04.019.084.026.128.019a.232.232 0 0 0 .118-.056c.098-.088.198-.176.3-.259.104-.082.21-.161.319-.239.049-.033.098-.067.146-.098l.149-.095c.039-.025.092-.062.146-.099a.739.739 0 0 1 .169-.089c.033.044.065.088.093.135.028.046.06.088.093.13.048.055.101.107.155.157a2.03 2.03 0 0 0 .957.478c.035.007.07.004.105-.007a.213.213 0 0 0 .141-.149.182.182 0 0 0-.005-.106l-.107-.315-.106-.316-.058-.167-.056-.167c-.009-.023-.02-.05-.023-.076-.007-.025-.018-.049-.028-.072-.009-.02-.018-.039-.023-.06-.002-.005.01-.004.025-.026a.477.477 0 0 1 .126-.097c.046-.028.099-.055.137-.081Zm-.555.684.073.22.074.22a1.635 1.635 0 0 1-.422-.28 1.47 1.47 0 0 1-.149-.167c-.044-.058-.086-.12-.13-.183a.487.487 0 0 0-.12-.128.268.268 0 0 0-.167-.048.466.466 0 0 0-.199.057c-.063.031-.125.07-.183.103l-.213.129c-.07.044-.138.088-.207.135-.048.034-.099.067-.142.1-.044.034-.097.071-.139.106l.04-.183.04-.183c.023-.105.069-.237.102-.374a.599.599 0 0 0-.008-.372.63.63 0 0 0-.266-.248c-.112-.066-.239-.119-.332-.172l-.095-.056-.097-.055.401-.021.401-.023a.195.195 0 0 0 .134-.059.21.21 0 0 0 .052-.122l.013-.016.012-.017.308-.482.302-.48.081.23.081.231c.039.096.065.232.111.355a.489.489 0 0 0 .083.16.434.434 0 0 0 .139.116.65.65 0 0 0 .182.046c.065.007.129.01.19.019l.215.028.214.028.212.028.211.029-.143.095-.142.096c-.099.064-.218.127-.333.201a.837.837 0 0 0-.279.257.446.446 0 0 0-.018.344c.021.116.079.236.113.336ZM92.21 187.615l.01-.02.01-.019.077-.195.08-.197a.153.153 0 0 0 .004-.079.149.149 0 0 0-.042-.071.12.12 0 0 0-.135-.019l-.27.135-.27.136-.013.005-.008-.007-.002-.007-.188-.139-.187-.134a.133.133 0 0 0-.066-.026.132.132 0 0 0-.141.139l.012.295.012.296-.205.156-.204.152a.112.112 0 0 0-.048.065.117.117 0 0 0 .004.081.128.128 0 0 0 .137.084l.213-.016.213-.016.013-.005.018-.007.028-.005.028-.004c.006.011.01.02.013.03a.083.083 0 0 1 .01.028c.004.007.005.013.007.018l.006.014.08.206.081.205a.113.113 0 0 0 .05.062.13.13 0 0 0 .077.019l.02-.007.019-.007a.133.133 0 0 0 .052-.037.12.12 0 0 0 .03-.058c.013-.051.027-.1.044-.151.018-.051.03-.097.048-.142l.024-.064.027-.061.007-.016.009-.019.01-.027.013-.028.007.004.001.005.035.014a.814.814 0 0 0 .565-.03.143.143 0 0 0 .054-.042.15.15 0 0 0 .027-.063.143.143 0 0 0-.009-.067.115.115 0 0 0-.04-.051l-.104-.079-.106-.08-.061-.047-.064-.048-.015-.012-.014-.01.01-.025.007-.012Zm-.188-.215-.014.033-.016.034c-.02.039-.035.077-.05.118a.35.35 0 0 0-.022.121c.004.048.025.09.058.121.032.032.069.06.106.085l.02.014.02.014.018.014.017.014-.026-.002a.47.47 0 0 1-.1-.022 1.553 1.553 0 0 1-.081-.03.217.217 0 0 0-.083-.018.156.156 0 0 0-.091.03.25.25 0 0 0-.057.061c-.014.023-.024.046-.037.071l-.005.012-.005.011a1.266 1.266 0 0 0-.04.088l-.04.091-.005-.012a.849.849 0 0 1-.022-.058 1.027 1.027 0 0 0-.05-.127.25.25 0 0 0-.086-.1.243.243 0 0 0-.109-.03.637.637 0 0 0-.116.007l.053-.04.054-.043a.12.12 0 0 0 .046-.068.142.142 0 0 0-.005-.081l-.007-.169-.007-.169.035.025.035.026.021.016.021.018a.71.71 0 0 0 .111.08c.04.023.086.032.132.027a.313.313 0 0 0 .06-.023c.017-.009.037-.018.054-.028l.018-.007.016-.007.086-.044.093-.053ZM94.695 192.933a3.055 3.055 0 0 0-.541-.846 1.984 1.984 0 0 0-1.706-.63c-.398.048-.79.125-1.175.231a5.036 5.036 0 0 0-1.106.45c-.16.088-.311.188-.452.303-.143.11-.264.246-.362.397a1.588 1.588 0 0 0-.102.213 1.064 1.064 0 0 1-.108.209l-.026.032-.025.03a.17.17 0 0 0-.117-.006.138.138 0 0 0-.055.036.169.169 0 0 0-.034.054c-.096.29-.124.598-.082.901.04.304.116.601.223.888.055.151.123.299.204.438.08.138.17.274.262.404.097.134.19.266.289.394.098.13.209.25.33.359.108.097.224.186.345.267.12.081.25.146.387.194.153.049.306.1.46.142.156.044.312.079.47.106.333.052.672.036 1-.044.407-.101.78-.308 1.08-.602l.178-.174c.055-.049.113-.095.173-.137.06-.041.118-.086.17-.136a.874.874 0 0 0 .124-.151c.037-.054.07-.109.107-.162l.127-.188c.04-.063.082-.128.12-.195.15-.273.24-.577.26-.888a3.196 3.196 0 0 0-.226-1.419c-.06-.155-.123-.315-.192-.47Zm.055 2.274a1.691 1.691 0 0 1-.16.359 5.13 5.13 0 0 1-.213.332 2.85 2.85 0 0 0-.093.148.8.8 0 0 1-.26.26 1.858 1.858 0 0 0-.16.12c-.12.107-.233.216-.352.318-.118.106-.25.195-.389.269-.132.069-.27.12-.417.153a2.415 2.415 0 0 1-.44.06c-.15.005-.3-.004-.448-.025a3.507 3.507 0 0 1-.44-.098c-.131-.039-.265-.074-.395-.12a1.802 1.802 0 0 1-.371-.176 2.343 2.343 0 0 1-.359-.286 2.73 2.73 0 0 1-.302-.345c-.102-.139-.213-.276-.306-.42a2.854 2.854 0 0 1-.419-.894 5.916 5.916 0 0 1-.105-.462 2.82 2.82 0 0 1-.037-.298 1.656 1.656 0 0 1 .008-.295c.03-.051.065-.1.104-.144.039-.048.08-.092.12-.137a.952.952 0 0 0 .117-.167c.034-.06.064-.12.088-.183.055-.127.13-.245.226-.345.093-.1.197-.19.31-.267.275-.19.574-.342.889-.454.315-.113.637-.197.967-.25.141-.023.29-.054.43-.077.142-.025.288-.035.432-.034.144.007.288.036.424.085a1.85 1.85 0 0 1 1.002.849c.152.264.282.538.389.822.11.27.185.557.216.849a2.18 2.18 0 0 1-.056.853Z"/><path fill="#D3A6DD" d="M93.577 194.43a.321.321 0 0 0-.044-.023l-.046-.021-.017-.009-.02-.009-.012-.005-.01-.005a1.061 1.061 0 0 1-.082-.044c-.026-.016-.054-.028-.082-.041a.42.42 0 0 0-.39.02.158.158 0 0 0-.073.08.108.108 0 0 0-.012.053c0 .018.003.035.009.053l-.025.009a.469.469 0 0 0-.091.051.278.278 0 0 0-.074.077.315.315 0 0 0-.05.178.55.55 0 0 0 .04.184c.04.117.101.224.18.317a.401.401 0 0 0 .141.113.402.402 0 0 0 .176.037.531.531 0 0 0 .206-.059l.072-.028a.58.58 0 0 0 .072-.028.627.627 0 0 0 .255-.235.538.538 0 0 0 .06-.354.551.551 0 0 0-.067-.171.321.321 0 0 0-.116-.14Zm-.104.373.002.005.003.009.004.008v.015c-.002.005-.002.008-.002.014l-.004.012-.003.012-.005.014-.006.013-.014.022-.015.023-.011.004-.009.003-.023.021-.024.02-.014.005-.014.005-.029.011-.026.01-.063.025-.064.025-.038.016-.007.003-.01.004-.006.003-.007.004-.005.001-.011-.008-.012-.007-.002-.006c-.009-.007-.016-.016-.023-.023l-.021-.024-.004-.009-.003-.009-.004-.007-.003-.009c-.007-.017-.02-.035-.03-.052-.009-.018-.014-.037-.023-.057l-.01-.026a.696.696 0 0 0-.011-.026l-.005-.015c-.004-.003-.006-.008-.006-.014l-.003-.007c-.004-.005-.005-.008-.005-.014l-.006-.014-.003-.009-.002-.005.005-.002-.005.002.055-.021.02-.009.022-.009.046-.017.045-.018a.126.126 0 0 0 .067-.065.176.176 0 0 0 .016-.095l.009.004.007.003.026.014.028.016.069.035.07.036.02.008c.001.006.001.006-.013-.007l.01.006.008.005a.065.065 0 0 1 .02.012l.019.012.001.008.002.007a2.516 2.516 0 0 0 .01.031l.006.016.007.019.007.016c-.004.011-.007.023-.014.032l.014-.005ZM91.466 193.232a.327.327 0 0 0-.068-.062.541.541 0 0 0-.081-.044.523.523 0 0 0-.176-.035.599.599 0 0 0-.236.044.14.14 0 0 0-.042.043.157.157 0 0 0-.021.112.164.164 0 0 0 .055.09l-.006.002-.005.001a.161.161 0 0 0-.021.113.653.653 0 0 0 .03.153.256.256 0 0 0 .093.121c.023.016.05.028.077.035a.22.22 0 0 0 .085.011c.033-.002.067-.004.1-.009a.75.75 0 0 0 .1-.028.286.286 0 0 0 .155-.155c.03-.07.04-.146.032-.22a.358.358 0 0 0-.07-.172Zm-.302.211c-.002-.009-.005-.016-.009-.023l-.009-.024.007-.004.01-.003.024.007.024.008.007.004.01.005.005.012.001.006c0 .002.002.003.002.007l-.002.016v.014l-.005.014-.005.014-.006.002-.024.008-.025.004a.139.139 0 0 1-.005-.039c.003-.005.003-.017.003-.031l-.003.003Z"/></svg>