<svg xmlns="http://www.w3.org/2000/svg" fill="none" viewBox="0 0 435 601"><path fill="#7A001D" d="M205.381 468.219c14.279 20.034 49.881 26.122 67.356 7.727 28.85-30.373-5.062-75.483 8.952-88.179 13.839-12.53 33.174.806 28.674 23.946 0 0 26.196-9.03 18.124-37.676 0 0 4.815 3.029 7.373 13.845 0 0 3.74-40.573-38.168-54.37-41.912-13.798-74.234 17.457-67.624 58.015 6.352 39.006 13.458 43.486 4.691 54.137-8.766 10.651-27.092-1.565-32.779.985-5.687 2.549-2.493 13.298 3.401 21.57Z"/><path fill="#DB652A" d="m231.851 469.783-9.489 51.701c-15.99-.206-33.269-3.479-33.269-3.479l2.576-53.482 40.176 5.259.006.001Z"/><path fill="#DB652A" d="M204.253 535.544c-9.209-.866-15.971-9.03-15.105-18.236.866-9.205 9.033-15.967 18.241-15.101 9.209.865 15.971 9.029 15.105 18.235-.866 9.206-9.033 15.967-18.241 15.102ZM209.96 486.595c-11.148-1.048-19.335-10.932-18.286-22.076 1.048-11.145 10.935-19.331 22.083-18.283 11.148 1.048 19.335 10.931 18.286 22.076-1.048 11.145-10.935 19.33-22.083 18.283Z"/><path fill="#DB652A" d="m222.334 521.855-7.404 48.664s-1.986 6.616-15.275 5.803c-5.02-.306-14.2-4.617-13.861-9.633l3.388-49.378 33.152 4.544Z"/><path fill="#DB652A" d="M204.285 535.547c-9.208-.866-15.971-9.03-15.104-18.236.866-9.205 9.033-15.967 18.241-15.101 9.208.865 15.971 9.029 15.105 18.235-.866 9.206-9.033 15.967-18.242 15.102ZM199.055 582.703c-8.084-.759-14.021-7.927-13.261-16.009.761-8.083 7.931-14.019 16.015-13.259 8.085.76 14.022 7.928 13.261 16.01-.76 8.082-7.93 14.018-16.015 13.258Z"/><path fill="#FFE8E3" d="M219.06 544.166s-2.813 19.867-3.946 26.458c-1.496 8.681-7.059 13.201-16.083 12.336-11.999-1.149-13.642-11.146-13.417-15.411.357-6.725 1.587-26.89 1.587-26.89s6.441 4.031 16.145 4.943c9.152.86 15.713-1.43 15.713-1.43l.001-.006Z"/><path fill="#DB652A" d="m145.346 514.619-1.803 49.19s.717 6.87 13.924 8.547c4.99.634 14.813-1.891 15.415-6.882l5.882-49.144-33.418-1.711Z"/><path fill="#DB652A" d="M160.522 531.432c-9.208-.865-15.971-9.029-15.105-18.235.866-9.206 9.033-15.967 18.241-15.102 9.209.866 15.971 9.03 15.105 18.236-.866 9.205-9.033 15.967-18.241 15.101ZM156.868 578.737c-8.085-.759-14.022-7.927-13.262-16.009.761-8.083 7.931-14.019 16.016-13.259 8.084.76 14.021 7.927 13.261 16.01-.761 8.082-7.931 14.018-16.015 13.258Z"/><path fill="#FFE8E3" d="M144.401 537.149s-.942 20.042-1.058 26.729c-.15 8.808 4.473 14.285 13.5 15.116 12.004 1.106 15.482-8.409 16.056-12.642.904-6.673 3.458-26.714 3.458-26.714s-7.081 2.761-16.785 1.849c-9.152-.86-15.171-4.333-15.171-4.333v-.005Z"/><path fill="#DB652A" d="m145.758 460.709-.407 53.536c15.748 2.777 33.335 2.78 33.335 2.78l7.488-53.02-40.416-3.291v-.005Z"/><path fill="#DB652A" d="M160.522 531.432c-9.208-.865-15.971-9.029-15.105-18.235.866-9.205 9.033-15.967 18.241-15.101 9.209.865 15.971 9.029 15.105 18.235-.866 9.205-9.033 15.967-18.241 15.101ZM164.091 482.283c-11.148-1.048-19.335-10.932-18.287-22.076 1.049-11.145 10.936-19.331 22.084-18.283 11.148 1.048 19.335 10.931 18.286 22.076-1.048 11.145-10.936 19.33-22.083 18.283Z"/><path fill="#CE5B29" d="m190.847 331.596 2.205-23.443c.582-6.185 6.07-10.729 12.257-10.147 6.187.581 10.731 6.068 10.15 12.252l-2.206 23.444 14.431 3.696a2.381 2.381 0 0 1 1.709 2.957c-3.193 11.175-14.264 20.567-29.865 19.101-15.601-1.466-24.047-12.764-25.437-24.74a2.398 2.398 0 0 1 2.304-2.669l14.452-.451Z"/><path fill="#DB652A" d="M168.506 361.464c-9.072 6.689-15.505 14.476-19.439 21.449-6.06 10.735.933 21.455 11.44 23.567 13.426 2.702 12.928 16.79 7.129 21.59-7.145 5.911-25.515 1.923-35.588-8.149-32.972-32.967 3.236-71.223 20.612-81.882 5.15 3.8 13.316 15.954 15.852 23.425h-.006Z"/><path fill="#DB652A" d="M158.871 364.102c-7.783-.731-13.498-7.631-12.766-15.411.732-7.781 7.634-13.495 15.417-12.764 7.782.732 13.497 7.632 12.765 15.412-.732 7.78-7.634 13.494-15.416 12.763Z"/><path fill="#FFD8D2" d="M175.714 354.705c1.791-6.187-.308-12.856-4.458-16.258-5.078-4.152-11.714-5.702-18.07-2.322-12.484 6.645-25.64 21.005-25.64 21.005 6.703 12.348 18.619 22.587 32.126 26.775 0 0 12.582-17.239 16.043-29.205l-.001.005Z"/><path fill="#FFD8D2" d="M159.033 365.954c-8.716-.819-15.117-8.546-14.297-17.26.819-8.713 8.55-15.113 17.266-14.294 8.715.819 15.116 8.547 14.296 17.26-.819 8.714-8.55 15.113-17.265 14.294Z"/><path fill="#DB652A" d="M229.066 367.159c7.666 8.262 12.534 17.11 15.098 24.694 3.951 11.676-4.919 20.905-15.636 21.023-13.695.153-15.834 14.087-11.032 19.884 5.918 7.138 24.71 6.642 36.485-1.377 38.544-26.247 10.106-70.577-4.977-84.286-5.768 2.774-16.058 13.193-19.944 20.061l.006.001Z"/><path fill="#DB652A" d="M238.038 371.544c-7.782-.731-13.498-7.631-12.766-15.411.732-7.78 7.635-13.494 15.417-12.763 7.782.731 13.498 7.631 12.766 15.411-.732 7.78-7.635 13.495-15.417 12.763Z"/><path fill="#FFD8D2" d="M223.413 359.191c-.606-6.412 2.7-12.573 7.412-15.143 5.764-3.132 12.573-3.419 18.186 1.086 11.027 8.854 21.273 25.413 21.273 25.413-8.888 10.883-22.506 18.723-36.558 20.321 0 0-9.145-19.281-10.313-31.682v.005Z"/><path fill="#FFD8D2" d="M237.703 373.35c-8.716-.819-15.117-8.547-14.297-17.26.82-8.714 8.55-15.113 17.266-14.294 8.716.819 15.117 8.546 14.297 17.26-.82 8.713-8.55 15.113-17.266 14.294Z"/><path fill="#FFE8E3" d="M164.527 333.794s6.061-1.951 13.779-1.805c1.088 4.968 3.86 16.042 22.158 17.524 18.621 1.513 23.051-9.033 24.844-12.72 6.424.94 13.759 4.862 13.759 4.862l-8.732 67.125c-.862 6.639-6.829 11.402-13.497 10.775l-45.102-4.239c-6.674-.627-11.647-6.424-11.25-13.112l4.046-68.404-.005-.006Z"/><path fill="#FF5050" d="m161.743 334.084 7.99-1.461 1.146 25.419c7.862 2.245 18.566 6.55 27.708 14.664 12.738-5.705 23.875-8.001 31.306-8.914l3.926-24.535 7.678 2.614-7.107 76.178a21.882 21.882 0 0 1-16.377 19.166l-18.682 4.771a21.882 21.882 0 0 1-14.656-1.366l-17.637-8.212a21.883 21.883 0 0 1-12.547-21.895l7.252-76.429Z"/><path fill="#FF7171" d="m160.688 402.795 33.629 16.147 35.431-9.586c3.245-.876 6.54 1.233 7.094 4.545 3.702 21.953 11.058 65.467 14.827 86.996 0 0-17.134 18.29-66.656 13.636-53.783-5.054-62.906-25.811-62.906-25.811 7.698-20.462 23.054-61.903 30.779-82.776a5.687 5.687 0 0 1 7.797-3.152l.005.001Z"/><path fill="#FFD233" d="m237.046 415.126-43.72 10.281-40.889-18.232 3.162-8.564 38.739 17.969 41.194-10.519 1.514 9.065Z"/><path fill="#FF5050" d="M169.213 564.603c-1.845-.858-6.783-2.342-7.867-3.316-1.023-.918-4.355 5.991-9.172 4.225-8.647-3.168-6.852-8.467-9.552-5.808-2.033 2.601-4.575-.589-5.74.476-2.422 2.217-4.929 3.94-6.797 5.613-1.989 1.777-6.531 5.593-8.206 9.436-1.456 3.333-1.381 4.527-1.381 4.527s1.558 9.773 15.453 10.544c23.234 1.283 32.38-8.528 32.38-8.528l2.169-2.108 1.675-2.612 1.565-16.636s-.743 5.96-4.527 4.187Z"/><path fill="#FF8383" d="M168.234 561.521c-5.633-.49-7.938-2.914-10.869-4.607-5.49-3.175-11.364-5.029-13.998-2.485-2.556 2.474-10.428 8.593-12.148 10.395.364 3.223 5.542 5.442 11.923 5.948 3.407.27 8.431-.808 11.581-.44 6.556.765 8.39 8.661 8.264 12.048 1.425-.484 4.606-.45 6.373-.339l1.146-2.386.627-.979a7.96 7.96 0 0 0 1.218-3.554l1.396-14.721s-1.578 1.462-5.513 1.12Z"/><path fill="#FF8383" d="M158.403 561.774s3.08-5.995 1.985-7.963c-1.944-3.504-14.384-5.186-16.703-2.772-1.114 1.159-1.035 4.251-1.035 4.251l15.753 6.484Z"/><path fill="#FF9F9F" d="M171.852 580.497c-.163 1.723-4.259 2.684-6.106 3.542-3.077 1.438-8.67 6.099-12.279 7.332-4.145 1.415-9.538 2.006-13.865 1.721-6.011-.394-12.377-1.775-16.614-4.011-1.62-.852-3.014-2.926-2.914-4.869l.421-4.474c1.597 4.078 15.928 7.847 29.838 5.286 6.357-1.168 10.706-4.975 14.269-6.477 2.103-.884 6.268-1.69 7.773-3.612l-.523 5.562Z"/><path stroke="#FFD233" stroke-linecap="round" stroke-linejoin="round" stroke-width="2.742" d="M143.371 558.656c5.099.176 9.336 1.54 9.336 1.54M138.2 563.179c5.099.176 9.336 1.54 9.336 1.54"/><path fill="#FF5050" d="M189.496 566.484c1.973-.499 7.1-1.038 8.347-1.792 1.176-.712 3.161 6.697 8.223 5.859 9.087-1.502 8.311-7.042 10.468-3.927 1.512 2.934 4.605.273 5.551 1.537 1.966 2.629 4.108 4.789 5.631 6.78 1.622 2.117 5.373 6.712 6.301 10.799.809 3.546.512 4.705.512 4.705s-3.354 9.312-17.149 7.481c-23.066-3.067-30.221-14.409-30.221-14.409l-1.737-2.475-1.159-2.879 1.566-16.636s-.388 5.994 3.667 4.957Z"/><path fill="#FF8383" d="M191.026 563.643c5.625.568 8.342-1.384 11.538-2.502 5.986-2.097 12.103-2.824 14.216.166 2.05 2.907 8.642 10.385 9.996 12.476-.96 3.099-6.46 4.314-12.824 3.623-3.398-.369-8.133-2.364-11.296-2.59-6.583-.469-9.858 6.947-10.367 10.298-1.31-.741-4.441-1.3-6.198-1.52l-.681-2.558-.433-1.078a7.959 7.959 0 0 1-.533-3.719l1.374-14.723s1.278 1.731 5.208 2.127Z"/><path fill="#FF8383" d="M200.642 565.718s-1.908-6.464-.465-8.193c2.564-3.081 15.1-2.416 16.928.387.877 1.346.223 4.369.223 4.369l-16.686 3.437Z"/><path fill="#FF9F9F" d="M183.933 581.613c-.162 1.723 3.684 3.43 5.338 4.617 2.755 1.986 7.38 7.607 10.696 9.491 3.809 2.162 8.996 3.748 13.301 4.273 5.979.733 12.491.562 17.071-.845 1.75-.537 3.507-2.314 3.771-4.242l.421-4.474c-2.33 3.71-17.112 4.743-30.301-.364-6.028-2.332-9.59-6.882-12.81-9.022-1.901-1.26-5.843-2.828-6.963-4.996l-.524 5.562Z"/><path stroke="#FFD233" stroke-linecap="round" stroke-linejoin="round" stroke-width="2.742" d="M215.684 565.453c-5.043-.777-9.46-.226-9.46-.226M219.922 570.861c-5.043-.777-9.46-.227-9.46-.227"/><path fill="#F260AF" d="m150.016 428.271 59.97 5.634c2.012.14 3.831-1.366 3.97-3.373l3.681-39.113a3.74 3.74 0 0 0-3.272-4.054l-59.969-5.634c-2.012-.139-3.832 1.367-3.971 3.373l-3.681 39.113c-.237 1.997 1.22 3.811 3.272 4.054Z"/><path fill="#F260AF" d="m182.176 431.299 53.651 5.041c1.663.156 3.183-1.279 3.363-3.187l3.726-39.594c.184-1.958-1.046-3.602-2.709-3.758l-53.651-5.041c-1.663-.156-3.183 1.279-3.363 3.187l-3.726 39.595c-.18 1.908.997 3.597 2.709 3.757Z"/><path fill="#C6B9FE" d="m191.063 385.129 11.994 1.127-4.384 46.591-11.994-1.127 4.384-46.591Z"/><path fill="#937AFF" d="M236.772 363.761s-2.501 16.603-30.342 15.962c-.161.134-3.606-4.19-3.606-4.19 8.659-.714 23.488-13.445 21.737-27.385 3.312 5.74 7.407 11.013 12.211 15.613Z"/><path fill="#C6B9FE" d="M202.82 375.577s16.444-14.647 33.953-11.822l-12.216-15.564s-24.054 1.1-29.965 26.613l8.222.773h.006Z"/><path fill="#937AFF" d="M163.438 356.869s-.641 16.777 26.832 21.334c.134.161 4.325-3.445 4.325-3.445-8.375-2.315-20.568-17.584-16.247-30.954-4.374 5.017-9.381 9.435-14.91 13.065Z"/><path fill="#C6B9FE" d="M194.597 374.803s-13.418-17.454-31.153-17.939l14.905-13.016s23.378 5.556 24.475 31.728l-8.227-.773Z"/><path fill="#FF78AF" d="m150.373 385.51 41.416 3.891c.979.092 1.839-.666 1.878-1.6l1.119-11.896c.092-.979-.616-1.834-1.546-1.922l-41.367-3.886c-.979-.092-1.839.665-1.878 1.6l-1.114 11.846c-.142.974.567 1.83 1.492 1.967Z"/><path fill="#FF78AF" d="m186.746 388.929 56.738 5.332c.689.015 1.29-.569 1.306-1.263l1.193-12.678c.113-.679-.368-1.37-1.047-1.483l-56.738-5.331c-.689-.015-1.29.568-1.306 1.262l-1.193 12.678c-.113.679.373 1.321 1.047 1.483Z"/><path fill="#C6B9FE" d="m192.114 373.88 11.995 1.127-1.451 15.421-11.995-1.127 1.451-15.421Z"/><path fill="#DB652A" d="M243.713 403.749c-2.472 4.628-7.066 8.819-15.179 9.121-14.776.553-15.241 13.646-11.032 19.884 5.285 7.823 24.712 6.642 36.487-1.376 1.303-.888 8.161-4.982 3.318-18.965-3.295-9.501-12.147-11.375-13.594-8.67v.006Z"/><path fill="#A0370D" d="M237.435 421.49s-7.254 7.01-15.406 4.318c-3.655-1.209-4.681-5.201-4.681-5.201s1.645 1.396 4.932 2.124c7.411 1.651 15.155-1.241 15.155-1.241ZM237.647 429.808s-7.255 7.009-15.406 4.318c-3.656-1.21-4.682-5.202-4.682-5.202s1.632 1.544 4.918 2.278c7.411 1.651 15.175-1.394 15.175-1.394h-.005Z"/><path fill="#DB652A" d="M147.298 394.685c1.565 5.008 5.297 9.981 13.211 11.79 14.414 3.297 12.429 16.246 7.13 21.59-6.651 6.702-25.517 1.922-35.59-8.15-1.115-1.114-7.089-6.415.277-19.25 5.009-8.72 14.056-8.913 14.972-5.985v.005Z"/><path fill="#A0370D" d="M150.151 413.286s5.82 8.238 14.33 7.112c3.817-.507 5.57-4.238 5.57-4.238s-1.877 1.065-5.242 1.168c-7.589.241-14.658-4.042-14.658-4.042ZM148.398 421.418s5.82 8.238 14.33 7.113c3.818-.508 5.57-4.239 5.57-4.239s-1.891 1.213-5.256 1.322c-7.589.241-14.65-4.196-14.65-4.196h.006Z"/><path fill="#7A001D" d="M154.663 166.478s-3.082-33.448-25.499-41.402c-18.993-6.705-36.497-1.139-46.023 14.529-11.08 18.236-7.748 38.466 10.496 46.26 14.038 5.998 19.619-4.871 19.619-4.871s2.581 5.997-4.15 15.538c7.152-.939 16.982-9.638 16.371-20.437-.485-8.106-2.689-16.352 3.055-19.978 7.193-4.543 15.232 9.486 15.232 9.486l8.053 18.749c1.773 2.914 6.167.728 5.112-2.544l-2.265-15.335-.001.005Z"/><path fill="#FF7171" d="M151.564 164.077a9.018 9.018 0 0 1-8.137-9.824c.467-4.959 4.867-8.602 9.827-8.136a9.018 9.018 0 0 1 8.136 9.824c-.466 4.959-4.866 8.602-9.826 8.136Z"/><path fill="#FFD233" d="M141.716 174.599a9.018 9.018 0 0 1-8.136-9.824c.466-4.959 4.866-8.602 9.827-8.136a9.018 9.018 0 0 1 8.136 9.824c-.467 4.959-4.867 8.602-9.827 8.136Z"/><path fill="#7A001D" d="M291.065 187.592s9.924-32.093 33.503-35.252c19.972-2.648 36.151 7.219 42.032 23.706 7.17 20.094-.359 39.237-19.817 43.103-14.975 2.974-18.187-8.809-18.187-8.809s-3.764 5.335.85 16.058c-6.799-2.394-14.626-12.933-11.8-23.376 2.15-7.831 6.007-15.447 1.132-20.181-6.103-5.925-16.863 6.146-16.863 6.146l-11.752 16.689c-2.336 2.484-6.189-.56-4.479-3.538l5.386-14.54-.005-.006Z"/><path fill="#FF7171" d="M295.058 185.886c-4.961-.466-8.604-4.864-8.137-9.823a9.023 9.023 0 0 1 9.827-8.137 9.019 9.019 0 1 1-1.69 17.96Z"/><path fill="#FFD233" d="M302.524 198.212a9.017 9.017 0 0 1-8.136-9.823 9.022 9.022 0 0 1 9.826-8.137 9.018 9.018 0 0 1 8.137 9.824c-.467 4.959-4.867 8.602-9.827 8.136Z"/><path fill="#DB652A" d="M210.176 122.588c-.515-2.961-.989-6.663-1.071-12.188-.135-11.985 1.402-26.096-4.4-28.82-10.803-5.12-36.057 31.436-30.41 51.524.968 3.44 8.753 4.27 22.661-.735 10.412-3.744 13.706-7.026 13.226-9.78l-.006-.001Z"/><path fill="#FED5C3" d="M198.908 97.558c2.966 1.559 1.173 9.407 1.418 16.773.082 3.93.265 6.8.558 9.199.044.352.901 4.383 1.222 6.774a70.417 70.417 0 0 1-5.156 2.07c-3.015 1.085-5.74 1.894-8.172 2.465-1.357-1.882-2.592-4.237-3.22-5.891-5.68-14.927 8.176-34.105 13.35-31.39Z"/><path fill="#DB652A" d="M249.688 128.059c1.313-2.701 2.784-6.132 4.386-11.422 3.431-11.484 5.841-25.475 12.172-26.496 11.794-1.949 26.009 40.141 15.045 57.902-1.875 3.04-9.59 1.697-21.585-6.938-8.977-6.465-11.243-10.524-10.019-13.04l.001-.006Z"/><path fill="#FED5C3" d="M255.096 137.499c1.456-2.627 2.918-5.679 3.054-6.003.938-2.229 1.899-4.941 3.047-8.695 2.25-7.016 2.67-15.053 5.946-15.744 5.72-1.206 13.808 21.031 4.265 33.839-.947 1.268-2.621 3.224-4.369 4.913-2.224-1.229-4.672-2.783-7.333-4.699a66.41 66.41 0 0 1-4.616-3.606l.006-.005Z"/><path fill="#DB652A" d="M121.851 222.647c9.511-13.103 14.774-20.885 19.479-40.211 4.689-19.211 12.497-31.051 15.286-34.999 3.508-4.967 27.773-32.121 73.947-25.698 46.175 6.423 62.324 39.051 64.072 44.937 2.523 8.485 5.535 18.053 5.177 37.81-.74 19.759 2.195 28.685 7.745 43.998 5.452 15.183 11.438 45.223-11.047 62.316-21.58 16.511-56.482 23.124-94.781 17.915-38.385-5.459-70.154-21.349-86.284-43.101-16.947-22.695-3.105-49.858 6.406-62.961v-.006Z"/><path fill="#FED5C3" d="M116.149 286.525c15.656-27.502 50.498-39.617 96.097-33.276 45.714 6.358 75.82 27.389 83.352 58.24-21.774 16.102-56.071 22.718-93.914 17.573-37.809-5.378-69.157-21.19-85.535-42.537Z"/><path fill="#7A001D" d="M139.232 190.181c2.398-10.649 7.525-31.466 20.993-47.443 11.524-13.672 37.895-25.612 70.53-21.073 33.167 4.616 53.853 24.061 61.713 39.575 9.443 18.637 7.861 40.366 7.254 51.267-3.625-21.225-28.809-55.261-73.111-61.073-43.686-6.078-74.547 15.046-87.374 38.748l-.005-.001Z"/><path fill="#7A001D" d="m194.392 161.954-6.416 10.643c-13.355-3.456-15.13-5.941-15.13-5.941 2.19-15.702 18.31-26.432 36.008-23.969l36.006 5.01c17.698 2.462 30.275 17.185 28.085 32.887 0 0-3.033 1.729-16.216 1.484l-3.23-11.885-4.916 11.368c-7.068-.366-15.002-1.034-26.424-2.625-11.494-1.599-19.285-3.081-26.133-4.613l-1.635-12.353.001-.006Z"/><path fill="#5B0D00" d="M201.168 250.559c.474-3.398 6.541-3.358 10.989-1.306 4.571-.663 11.641.911 10.903 4.356-.738 3.445-8.609 8.858-12.101 8.375-3.786-.527-10.397-7.101-9.792-11.419l.001-.006Z"/><path fill="#fff" d="M255.389 220.353c18.53.593 22.587 18.056 22.587 18.056s-5.004 14.007-21.686 15.115c-14.871.986-24.089-7.797-24.089-7.797s3.57-25.617 23.188-25.374Z"/><path fill="#7C2900" d="M251.689 216.85c12.862-2.56 24.691 6.265 27.814 17.769 0 0-.831 2.256-1.536 3.773-.145-.461-6.568-17.296-22.727-16.988-18.631.352-22.779 23.206-23.04 24.329-.27-2.348 1.549-25.311 19.489-28.883Z"/><path fill="#7C2900" d="M258.349 212.622a2.51 2.51 0 0 1 4.863 1.252l-1.017 3.942a2.51 2.51 0 0 1-4.862-1.253l1.016-3.941ZM269.502 216.056a2.512 2.512 0 0 1 4.078 2.93l-2.251 3.131a2.51 2.51 0 0 1-4.078-2.929l2.251-3.132ZM276.953 223.401a2.511 2.511 0 0 1 3.565 3.534l-2.41 2.43a2.511 2.511 0 0 1-3.566-3.535l2.411-2.429Z"/><path fill="#000016" d="M251.855 250.928c-6.979-.656-12.104-6.843-11.447-13.82s6.846-12.101 13.825-11.446c6.978.656 12.103 6.844 11.447 13.82-.657 6.977-6.846 12.102-13.825 11.446Z"/><path fill="#fff" d="M257.523 230.685c-.59 2.521 1.063 5.12 3.602 5.59 2.407.574 4.887-1.097 5.478-3.618.59-2.521-1.063-5.12-3.602-5.59-2.505-.704-4.991.966-5.478 3.618Z"/><path fill="#7C2900" d="M246.009 201.373s21.061-7.71 35.68 12.175c0 0-3.493-13.14-14.145-18.169-10.773-5.045-21.535 5.994-21.535 5.994Z"/><path fill="#fff" d="M179.015 209.725c-17.987-4.487-26.66 11.206-26.66 11.206s.987 14.845 16.733 20.457c14.036 5.01 25.301-.928 25.301-.928s3.57-25.617-15.368-30.74l-.006.005Z"/><path fill="#7C2900" d="M183.526 207.363c-11.678-5.974-25.462-.715-31.611 9.504 0 0 .183 2.395.447 4.048.264-.4 11.043-14.841 26.505-10.139 17.828 5.421 15.57 28.536 15.516 29.695.901-2.183 5.427-24.775-10.858-33.103l.001-.005Z"/><path fill="#7C2900" d="M178.179 205.558a2.511 2.511 0 0 1-5.021-.122l.1-4.069a2.51 2.51 0 0 1 5.021.123l-.1 4.068ZM167.919 205.348a2.51 2.51 0 0 1-4.724 1.706l-1.31-3.627a2.51 2.51 0 0 1 4.724-1.705l1.31 3.626ZM159.09 209.768a2.51 2.51 0 1 1-4.396 2.427l-1.655-2.996a2.512 2.512 0 0 1 4.397-2.427l1.654 2.996Z"/><path fill="#000016" d="M175.176 240.26c-6.979-.655-12.104-6.843-11.447-13.82.657-6.976 6.846-12.101 13.825-11.445 6.978.655 12.103 6.843 11.447 13.82-.657 6.977-6.846 12.101-13.825 11.445Z"/><path fill="#fff" d="M180.845 220.012c-.591 2.521 1.063 5.12 3.601 5.59 2.407.574 4.888-1.097 5.479-3.618.59-2.521-1.063-5.12-3.602-5.59-2.505-.704-4.991.966-5.478 3.618Z"/><path fill="#7C2900" d="M194.725 194.239s-18.153-13.166-37.651 1.974c0 0 6.949-11.684 18.571-13.616 11.741-1.914 19.075 11.641 19.075 11.641"/><path fill="#DB652A" d="M152.354 220.935s3.48 9.767 17.489 15.017c13.956 5.228 24.541 4.513 24.541 4.513s-11.948 13.851-30.667 8.152c-20.489-6.234-11.362-27.687-11.362-27.687l-.001.005ZM277.977 238.414s-6.593 8.368-20.779 9.694c-14.843 1.386-24.991-2.376-24.991-2.376s7.857 16.606 27.423 16.232c21.412-.404 18.352-23.549 18.352-23.549l-.005-.001Z"/><path fill="#ED6D83" d="M192.864 289.727c3.264 3.441 6.855 5.091 13.637 6.037 6.853.953 10.674.336 14.75-2.156 1.375-.836 6.48-3.827 8.701-8.485 1.732-3.627 2.889-7.651 1.343-10.345-1.095-1.907-5.424-.94-9.819-1.331-3.492-.312-7.766-.509-12.432-1.185-4.22-.606-7.945-1.668-11.146-2.31-3.623-.727-7.239-2.65-9.47-1.05-2.556 1.829-3.313 5.416-1.84 10.702 1.436 5.144 5.091 8.875 6.271 10.117l.005.006Z"/><path fill="#FFA0B5" d="M192.865 289.721c3.263 3.441 6.855 5.091 13.636 6.037 6.853.953 10.675.336 14.751-2.156-2.156-4.887-6.366-6.662-13.387-7.642-7.016-.973-11.607-.395-15.005 3.755l.005.006Z"/><path fill="#fff" d="M201.027 270.655c2.43.564 5.108 1.197 8.015 1.619 3.447.495 6.68.738 9.54.951-.563 3.997-2.41 7.548-9.834 6.508-6.71-.939-8.38-4.015-7.721-9.078Z"/><path fill="#E594C5" d="M34.972 114.568c7.763-2.187 10.557-5.195 12.11-14.219.31-1.367 2.484-1.367 2.484 0 1.863 9.297 4.657 12.032 12.11 14.493 1.241.546 1.241 2.187 0 2.187-7.453 2.188-10.558 5.195-12.11 13.946-.31 1.367-2.484 1.367-2.795 0-1.863-8.751-4.657-11.758-12.11-13.946-1.242-.82-1.242-2.461.311-2.461ZM.736 81.741c4.733-1.342 6.437-3.187 7.384-8.724.189-.839 1.514-.839 1.514 0 1.136 5.704 2.84 7.382 7.384 8.892.758.335.758 1.342 0 1.342-4.544 1.342-6.437 3.188-7.384 8.556-.19.84-1.514.84-1.704 0-1.136-5.368-2.84-7.214-7.384-8.556-.757-.503-.757-1.51.19-1.51ZM67.615 71.442c6.299-2.015 8.574-4.496 9.973-11.628.35-1.085 1.925-1.085 2.275 0 1.575 7.442 3.674 9.923 9.798 11.628 1.05.31 1.05 1.55 0 2.016-6.124 2.015-8.398 4.341-9.973 11.473-.35 1.24-2.1 1.085-2.275 0-1.4-7.132-3.674-9.613-9.798-11.628-1.05-.31-1.05-1.55 0-1.86Z"/></svg>