<svg xmlns="http://www.w3.org/2000/svg" fill="none" viewBox="0 0 32 33"><path fill="#000" fill-rule="evenodd" d="M14.671 2.255h9.058c.854 0 1.568 0 2.15.048.608.05 1.179.157 1.719.432a4.4 4.4 0 0 1 1.922 1.923c.275.54.383 1.11.432 1.718.048.583.048 1.296.048 2.15v9.058c0 .855 0 1.568-.048 2.15-.05.609-.157 1.18-.432 1.719a4.4 4.4 0 0 1-1.922 1.923c-.54.275-1.11.382-1.718.432-.583.047-1.297.047-2.151.047H23.6v.129c0 .855 0 1.568-.048 2.15-.05.609-.157 1.18-.432 1.719a4.4 4.4 0 0 1-1.922 1.923c-.54.275-1.11.382-1.718.432-.583.047-1.297.047-2.151.047H8.27c-.854 0-1.568 0-2.15-.047-.608-.05-1.179-.157-1.719-.432a4.4 4.4 0 0 1-1.922-1.923c-.275-.54-.383-1.11-.432-1.718C2 25.552 2 24.839 2 23.985v-9.058c0-.855 0-1.568.048-2.151.05-.608.157-1.179.432-1.718a4.4 4.4 0 0 1 1.922-1.923c.54-.275 1.11-.382 1.719-.432.582-.048 1.296-.048 2.15-.048H8.4v-.128c0-.855 0-1.568.048-2.151.05-.608.157-1.179.432-1.718a4.4 4.4 0 0 1 1.922-1.923c.54-.275 1.11-.382 1.719-.432.582-.048 1.296-.048 2.15-.048Zm-6.271 8.8h-.08c-.916 0-1.53.001-2.004.04-.46.037-.68.104-.824.178a2 2 0 0 0-.874.874c-.074.145-.14.365-.178.824-.04.474-.04 1.088-.04 2.004v8.96c0 .916 0 1.531.04 2.004.037.46.104.68.178.824a2 2 0 0 0 .874.874c.145.074.365.141.824.179.473.038 1.088.04 2.004.04h8.96c.916 0 1.53-.002 2.004-.04.46-.038.68-.105.824-.179a2 2 0 0 0 .874-.874c.074-.145.14-.364.178-.824.04-.473.04-1.088.04-2.004v-.08h-6.529c-.854 0-1.568 0-2.15-.047-.608-.05-1.179-.157-1.719-.432a4.4 4.4 0 0 1-1.922-1.923c-.275-.54-.383-1.11-.432-1.718-.048-.583-.048-1.296-.048-2.15v-6.53Zm6.32 10.4c-.916 0-1.53 0-2.004-.04-.46-.037-.68-.104-.824-.178a2 2 0 0 1-.874-.874c-.074-.145-.14-.364-.178-.824-.04-.473-.04-1.088-.04-2.004v-8.96c0-.916 0-1.53.04-2.004.037-.46.104-.679.178-.824a2 2 0 0 1 .874-.874c.145-.073.365-.14.824-.178.473-.039 1.088-.04 2.004-.04h8.96c.916 0 1.53.001 2.004.04.46.038.68.105.824.178a2 2 0 0 1 .874.874c.074.145.14.365.178.824.04.474.04 1.088.04 2.004v8.96c0 .916 0 1.531-.04 2.004-.037.46-.104.68-.178.824a2 2 0 0 1-.874.874c-.145.074-.365.141-.824.179-.473.038-1.088.04-2.004.04h-8.96Z" clip-rule="evenodd"/></svg>