<svg xmlns="http://www.w3.org/2000/svg" fill="none" viewBox="0 0 384 157"><g clip-path="url(#a)"><circle cx="73.831" cy="47.831" r="38.608" fill="#FFDE7A" transform="rotate(16.169 73.831 47.831)"/><circle cx="73.993" cy="48.125" r="31.739" fill="#F4C10B" transform="rotate(16.169 73.993 48.125)"/><circle cx="73.993" cy="48.125" r="27.949" fill="#C2C9EC" transform="rotate(16.169 73.993 48.125)"/><circle cx="73.984" cy="48.135" r="27.825" fill="#FFDE7A" transform="rotate(16.169 73.984 48.135)"/><path fill="#F4C10B" d="m69.307 49.752-.885 3.054 13.701 3.973-1.353 4.666-13.701-3.972-1.329 4.58-9.12-2.643 1.329-4.582-3.055-.885 1.353-4.666 3.054.885.886-3.054-3.054-.886 1.353-4.666 3.054.886 3.69-12.726 18.876 5.473c4.242 1.23 7.2 2.977 8.874 5.24 1.71 2.243 2.167 4.736 1.372 7.48-1.624 5.599-6.72 7.157-15.288 4.672l-9.757-2.829ZM72.32 39.36l-1.66 5.727 8.908 2.583c1.414.41 2.534.459 3.36.147.827-.313 1.371-.921 1.634-1.826.254-.877.115-1.668-.416-2.374-.531-.706-1.504-1.264-2.918-1.674L72.32 39.36Z"/><circle cx="121.831" cy="116.831" r="27.387" fill="#FFDE7A" transform="rotate(-60.276 121.831 116.831)"/><circle cx="122.06" cy="116.769" r="22.515" fill="#F4C10B" transform="rotate(-60.276 122.06 116.769)"/><circle cx="122.06" cy="116.769" r="19.826" fill="#C2C9EC" transform="rotate(-60.276 122.06 116.769)"/><circle cx="122.066" cy="116.777" r="19.739" fill="#FFDE7A" transform="rotate(-60.276 122.066 116.777)"/><path fill="#F4C10B" d="m122.403 120.271 1.959 1.118 5.018-8.788 2.993 1.709-5.018 8.788 2.939 1.678-3.34 5.849-2.939-1.677-1.118 1.959-2.993-1.709 1.118-1.959-1.959-1.119-1.118 1.959-2.993-1.708 1.119-1.959-8.163-4.66 6.913-12.108c1.553-2.721 3.249-4.47 5.089-5.248 1.831-.807 3.626-.708 5.386.297 3.591 2.051 3.818 5.824.68 11.32l-3.573 6.258Zm-6.666-3.806 3.673 2.097 3.263-5.714c.517-.907.737-1.671.659-2.293-.078-.621-.407-1.098-.987-1.429-.563-.322-1.131-.358-1.706-.109s-1.122.827-1.64 1.734l-3.262 5.714Z"/><g clip-path="url(#b)"><path fill="#CA2E8C" d="M253.974 154.682c45.384 9.849 88.763-12.463 96.872-49.83 8.109-37.367-22.119-75.652-67.503-85.5-45.403-9.854-88.762 12.462-96.871 49.829-8.109 37.367 22.099 75.648 67.502 85.501Z"/><path fill="#CA2E8C" d="M351.075 108.603a35.986 35.986 0 0 1-3.249-.87l2.478-7.645c4.397 1.427 10.364 1.941 13-.304 1.457-1.246 1.949-3.607 1.443-7.027l7.911-1.182c1.151 7.898-1.653 12.142-4.213 14.321-4.496 3.835-11.428 3.996-17.37 2.707ZM293.131 149.938l27.225-7.949 2.795 26.163-19.689 5.761-10.331-23.975ZM228.523 137.953l-21.481-18.52-13.388 22.652 15.53 13.404 19.339-17.536ZM200.806 59.05l-23.2-5.034-7.308 33.675 23.2 5.035 7.308-33.675ZM233.002-1.32l17.118 29.663-27.857 2.94L233.002-1.32Z"/><path fill="#000" d="M215.108 77.081c3.909.849 7.785-1.641 8.641-5.588.853-3.927-1.619-7.815-5.548-8.667-3.928-.853-7.785 1.64-8.641 5.588-.837 3.95 1.639 7.819 5.548 8.667Z"/><path fill="#F90" d="M308.072 32.428a18.906 18.906 0 0 1-6.352 10.506 68.036 68.036 0 0 0-4.007-2 59.67 59.67 0 0 0-2.987-1.327 54.956 54.956 0 0 0-2.653-1.07c-3.645-1.407-8.121-2.564-12.402-3.493a177.31 177.31 0 0 0-3.253-.665 278.398 278.398 0 0 0-4.724-.86 18.755 18.755 0 0 1-.249-9.04c2.203-10.151 12.193-16.578 22.278-14.389 10.086 2.189 16.548 12.206 14.349 22.338Z"/><path fill="#F16F04" d="M292.976 14.287c-7.876-1.71-15.661 3.324-17.374 11.218a14.49 14.49 0 0 0 .856 8.883c1.059.21 2.158.427 3.253.665-1.632-2.575-2.267-5.776-1.568-8.997 1.41-6.5 7.818-10.66 14.307-9.252 6.47 1.404 10.577 7.847 9.166 14.347a12.103 12.103 0 0 1-6.851 8.464c1.052.434 2.041.875 2.987 1.327a14.622 14.622 0 0 0 6.405-9.24c1.694-7.898-3.324-15.71-11.181-17.415Z"/><path stroke="#000" stroke-width="4" d="M309.591 47.685s-6.979-5.092-17.518-9.148c-10.54-4.055-28.039-6.126-28.039-6.126"/><path fill="#EFCCEA" d="m267.12 95.05-.984 4.537 20.248 4.394-1.504 6.931-20.249-4.394-1.478 6.814-13.486-2.927 1.478-6.814-4.515-.979 1.505-6.932 4.514.98.985-4.536-4.515-.98 1.504-6.931 4.515.98 4.099-18.89 27.911 6.057c6.274 1.361 10.739 3.605 13.377 6.727 2.705 3.096 3.605 6.683 2.723 10.748-1.807 8.326-9.063 11.11-21.708 8.366l-14.424-3.13.004-.02Zm3.353-15.453-1.845 8.503 13.154 2.854c2.072.45 3.717.416 4.879-.133 1.163-.55 1.897-1.48 2.192-2.835.281-1.296-.002-2.447-.836-3.41-.851-.986-2.314-1.694-4.385-2.144l-13.159-2.835Z"/></g></g><defs><clipPath id="a"><path fill="#fff" d="M0 0h384v157H0z"/></clipPath><clipPath id="b"><path fill="#fff" d="m191.933-12 195.45 42.415-33.932 156.36-195.45-42.415z"/></clipPath></defs></svg>