<svg xmlns="http://www.w3.org/2000/svg" fill="none" viewBox="0 0 32 32"><path fill="#CC2E8D" d="M31.83 24.858a2.289 2.289 0 0 0-.108-.213c-.555-1.022-1.616-2.277-3.182-3.765l-.034-.034-.016-.017-.017-.017h-.017c-.71-.693-1.16-1.158-1.349-1.397-.345-.454-.422-.914-.234-1.38.133-.352.634-1.095 1.5-2.231.455-.602.816-1.084 1.083-1.448 1.921-2.612 2.755-4.281 2.499-5.008l-.1-.17c-.066-.102-.238-.196-.515-.281-.279-.085-.634-.1-1.067-.043l-4.798.034c-.078-.028-.19-.025-.334.009l-.216.051-.084.043-.066.051a.748.748 0 0 0-.183.179 1.173 1.173 0 0 0-.167.298 28.098 28.098 0 0 1-1.783 3.833 36.452 36.452 0 0 1-1.133 1.83c-.344.517-.633.898-.866 1.142a6.1 6.1 0 0 1-.633.588c-.19.148-.333.21-.433.187-.1-.023-.195-.045-.284-.068a1.125 1.125 0 0 1-.374-.417 1.904 1.904 0 0 1-.192-.665 7.494 7.494 0 0 1-.058-.69c-.006-.193-.003-.466.008-.818.012-.352.017-.59.017-.715 0-.432.008-.9.024-1.405.017-.506.03-.906.042-1.201.012-.295.017-.608.017-.937 0-.33-.02-.588-.059-.775a2.685 2.685 0 0 0-.174-.545.913.913 0 0 0-.341-.41 1.902 1.902 0 0 0-.559-.23c-.588-.135-1.338-.21-2.25-.22-2.065-.023-3.392.113-3.981.408a2.252 2.252 0 0 0-.633.511c-.2.25-.228.387-.084.409.667.102 1.139.346 1.417.732l.1.205c.078.148.155.409.233.784.078.374.128.789.15 1.243.055.829.055 1.539 0 2.13-.056.59-.108 1.05-.158 1.379-.05.33-.126.596-.225.8-.1.205-.167.33-.2.375a.29.29 0 0 1-.084.085 1.223 1.223 0 0 1-.45.086c-.155 0-.344-.08-.566-.239a4.033 4.033 0 0 1-.691-.656c-.24-.278-.509-.667-.809-1.167-.3-.5-.61-1.09-.932-1.771l-.267-.494c-.167-.318-.394-.781-.683-1.388a27.085 27.085 0 0 1-.766-1.764 1.12 1.12 0 0 0-.4-.545l-.084-.05a1.133 1.133 0 0 0-.266-.146 1.738 1.738 0 0 0-.383-.11l-4.565.034c-.467 0-.784.108-.95.323L.05 9.28a.562.562 0 0 0-.05.273c0 .125.033.278.1.46a56.764 56.764 0 0 0 2.174 4.633c.783 1.488 1.464 2.686 2.041 3.594a42.449 42.449 0 0 0 1.766 2.573c.6.806.997 1.323 1.191 1.55.195.227.348.397.459.51l.416.41c.267.272.658.599 1.175.979.516.38 1.088.755 1.716 1.125.628.368 1.358.67 2.19.902a7.418 7.418 0 0 0 2.433.282h1.917c.388-.035.683-.16.883-.375l.066-.086c.044-.068.086-.173.125-.315.039-.142.058-.298.058-.468a5.735 5.735 0 0 1 .108-1.32c.083-.392.178-.687.284-.886a2.175 2.175 0 0 1 .642-.75c.055-.028.099-.047.132-.059.267-.09.58-.003.942.265.361.266.7.596 1.016.988.317.392.697.831 1.142 1.32.444.488.833.851 1.166 1.09l.333.204c.222.137.511.262.867.375.355.114.665.142.932.085l4.265-.068c.422 0 .75-.071.983-.213.234-.142.372-.298.417-.468.045-.17.047-.364.009-.58a2.18 2.18 0 0 0-.118-.451Z"/></svg>