<svg xmlns="http://www.w3.org/2000/svg" fill="none" viewBox="0 0 384 157"><g clip-path="url(#a)"><path fill="#A5ACB7" d="M118.027 149.116c-1.386-6.55-3.638-24.668-3.638-24.668l8.148-1.984s1.803 9.158 9.482 26.381c2.853 6.401 7.844 12.853 9.143 17.425 1.654 5.942-.915 12.737-8.184 12.386-4.03-.196-7.715-3.223-9.735-8.225-2.477-6.13-4.365-17.27-5.218-21.313l.002-.002Z"/><path fill="#A5ACB7" d="M118.513 127.854a4.198 4.198 0 1 0 0-8.396 4.198 4.198 0 0 0 0 8.396Z"/><path fill="#B6D7FF" d="M126.013 123.595c-1.446-3.267-3.829-7.119-8.612-6.236-3.906.725-5.591 3.538-5.393 9.06.363 10.014 1.031 13.026 1.031 13.026s3.123 3.249 10.013 1.636c6.496-1.52 7.669-5.091 7.669-5.091s-1.052-4.121-4.708-12.395Z"/><path fill="#B6D7FF" d="M118.59 130.094a6.416 6.416 0 1 0 0-12.832 6.416 6.416 0 0 0 0 12.832Z"/><path fill="#A5ACB7" d="M80.646 149.123c1.387-6.55 3.639-24.668 3.639-24.668l-8.148-1.984s-1.804 9.158-9.483 26.381c-2.852 6.401-7.843 12.853-9.142 17.425-1.654 5.942.915 12.737 8.184 12.386 4.03-.195 7.715-3.223 9.735-8.225 2.476-6.13 4.365-17.269 5.218-21.312l-.003-.003Z"/><path fill="#A5ACB7" d="M80.163 127.865a4.198 4.198 0 1 0-.001-8.396 4.198 4.198 0 0 0 .001 8.396Z"/><path fill="#B6D7FF" d="M72.638 123.582c1.445-3.267 3.829-7.119 8.611-6.235 3.907.724 5.592 3.537 5.394 9.06-.364 10.013-1.031 13.025-1.031 13.025s-3.123 3.25-10.013 1.637c-6.496-1.521-7.669-5.092-7.669-5.092s1.051-4.121 4.708-12.395Z"/><path fill="#B6D7FF" d="M80.061 130.081a6.416 6.416 0 1 0 0-12.833 6.416 6.416 0 0 0 0 12.833Z"/><path fill="#848E96" d="m105.386 114.865-.008-10.616a5.973 5.973 0 0 0-5.975-5.97h-.054a5.975 5.975 0 0 0-5.976 5.977l.008 10.609s-2.206.222-4.448.464c-1.847.201-2.806 2.322-1.719 3.829 2.14 2.969 6.144 6.501 11.82 6.501 5.677 0 9.949-3.342 12.374-6.223 1.239-1.471.366-3.731-1.541-3.981-2.267-.296-4.484-.59-4.484-.59h.003Z"/><path fill="#90BCFC" d="M119.751 117.331c-3.244-1.031-7.988-1.768-10.753-1.989 0 0-2.425 4.841-9.63 4.841-7.204 0-9.189-4.986-9.189-4.986-2.813.227-8.05.959-11.077 2.039-.15.054-2.842 38.26-2.842 38.26 1.035 7.988 14.78 9.083 23.126 8.944 8.347.142 22.661-1.889 23.127-9.019 0 0-2.489-38.003-2.76-38.088l-.002-.002Z"/><path fill="#1456C9" d="M115.483 132.205H83.291l-2.39 33.586h36.971l-2.389-33.586Z"/><path fill="#1456C9" d="m115.501 132.48-1.195-16.429c-1.688-.42-4.185-.606-4.185-.606l-.101 17.033h5.481v.002ZM88.75 132.48l-.121-17.136s-2.028.181-4.107.583l-1.253 16.553h5.481Z"/><path fill="#FFD233" d="M86.197 136.698a2.06 2.06 0 1 0 .002-4.121 2.06 2.06 0 0 0-.002 4.121ZM112.481 136.699a2.062 2.062 0 1 0-.001-4.123 2.062 2.062 0 0 0 .001 4.123Z"/><path fill="#1646B2" d="m101.118 178.692-3.071.018-23.38-4.927 1.27-14.451a2.939 2.939 0 0 1 3.498-2.623c3.427.673 9.784 1.531 19.928 1.531 10.145 0 16.649-.879 20.079-1.554a2.936 2.936 0 0 1 3.486 2.564l1.57 14.494-23.382 4.948h.002Z"/><path fill="#043A9B" d="M99.167 163.478c14.724 0 22.029-1.978 23.941-2.599l-.598-5.463s-6.581 2.77-23.253 2.77-23-2.696-23-2.696l-.477 5.533c2.213.69 9.207 2.455 23.387 2.455Z"/><path fill="#848E96" d="M41.81 12.703s-6.904 22.72.875 38.461c7.656 15.492 18.953 15.597 21.184 14.397 1.003-.539 1.14-2.015 1.358-3.546.425-2.986-.028-7.95-.873-10.196-3.136-8.329-8.073-13.462-11.003-17.793-3.399-5.02-11.542-21.323-11.542-21.323Z"/><path fill="#4D5791" d="M42.66 17.078s-3.205 21.516 5.853 35.297c3.821 5.816 8.807 9.057 12.755 9.64 2.726.402 3.96 0 3.96 0 1.093-8.2 2.126-12.248 3.412-16.51L42.66 17.078Z"/><path fill="#848E96" d="M66.077 32.018c-4.58-4.223-8.39-5.256-14.776-9.822-6.46-4.62-9.488-9.496-9.488-9.496s2.546 20.816 16.78 29.566c-2.72.83-5.676-.775-5.676-.775.693 1.966 3.216 5.612 7.091 7.828 3.157 1.804 7.213 2.672 9.112 2.309.394-.075 1.012-1.18 1.365-2.639 1.781-7.39-.5-13.366-4.408-16.973v.002ZM156.607 12.703s6.904 22.72-.876 38.461c-7.655 15.492-18.952 15.597-21.184 14.397-1.002-.539-1.139-2.015-1.358-3.546-.425-2.986.029-7.95.874-10.196 3.136-8.329 8.073-13.462 11.003-17.793 3.396-5.02 11.541-21.326 11.541-21.326v.003Z"/><path fill="#4D5791" d="M155.756 17.078s3.206 21.516-5.852 35.297c-3.821 5.816-8.807 9.058-12.755 9.64-2.726.402-3.96 0-3.96 0-1.093-8.2-2.126-12.248-3.412-16.51l25.979-28.427Z"/><path fill="#848E96" d="M132.341 32.019c4.579-4.224 8.39-5.257 14.775-9.823 6.46-4.62 9.488-9.496 9.488-9.496s-2.546 20.816-16.78 29.567c2.721.83 5.676-.776 5.676-.776-.693 1.966-3.215 5.612-7.091 7.828-3.156 1.804-7.212 2.672-9.111 2.309-.395-.075-1.013-1.18-1.366-2.639-1.781-7.39.5-13.365 4.409-16.973v.003Z"/><path fill="#B2B8BF" d="M54.52 73.688s5.716-36.454 11.805-45.61c8.305-12.476 22.689-14.692 22.689-14.692s7.725-.523 10.304-.523c2.559 0 10.22.523 10.22.523s14.384 2.172 22.689 14.693c6.089 9.155 11.804 45.609 11.804 45.609l16.396 11.456s-22.441 24.699-61.111 24.699c-38.668 0-61.112-24.699-61.112-24.699l16.312-11.456h.005Z"/><path fill="#5D76D1" d="M103.554 13.275c.222-2.395-1.58-4.52-4.025-4.746-2.444-.227-4.605 1.531-4.827 3.926-.222 2.395 1.58 4.52 4.025 4.746 2.444.226 4.605-1.532 4.827-3.926Z"/><path fill="#1646B2" d="M87.443 30.104c.376-1.747.61-1.959 1.098-2.848 0 0 .788-1.726 1.123-2.182 3.203-4.35 8.519-7.223 12.42-7.223 3.644 0 8.72 2.799 12.003 7.13.345.456 1.167 2.255 1.167 2.255.495.889.835 1.11 1.227 2.86l1.291 5.62 15.164 3.654c2.229.536 4.211-1.53 3.577-3.734-.709-2.46-1.469-4.517-2.283-5.983-8.22-14.786-24.462-18.203-35.14-18.2-11.43 0-26.812 3.373-34.913 18.218-.853 1.556-1.639 3.778-2.363 6.442-.57 2.092 1.219 4.071 3.358 3.731l20.447-3.254 1.824-6.484v-.002Z"/><path fill="#4258B7" d="M119.327 32.173c-5.095-.881-11.251-1.32-17.881-1.32-5.581 0-10.825.204-15.378.89-7.589 1.144-8.823 5.82-.01 4.666 4.625-.605 9.861-.724 15.409-.726 6.555 0 12.68.35 17.88 1.162 6.971 1.087 6.138-3.61-.018-4.674l-.002.002Z"/><path fill="#043A9B" d="M120.115 24.651c-.801-1.646-1.623-3.218-2.62-4.576-3.201-4.357-7.818-7.03-12.299-8.259a51.706 51.706 0 0 0-6.105-.363c-1.388 0-2.84.052-4.326.165-3.172.93-5.865 2.902-8.027 5.465-2.399 2.845-3.517 5.066-4.447 7.576-.995 2.68-2.06 8.114-3.043 13.23l6.372-1.302 1.824-6.483c.376-1.747 2.37-1.997 2.858-2.886 0 0 .652-1.438 1.208-2.28 3.087-4.68 6.494-5.806 10.395-5.806 3.644 0 7.903 1.07 10.838 5.852.299.487.941 1.932.941 1.932.495.89 2.409 1.433 2.801 3.183l1.291 5.62 5.898 1.422c-1.031-5.244-2.257-9.82-3.556-12.492l-.003.002Z"/><path fill="#5D76D1" d="M115.733 38.55c10.24.745 19.027 3.729 22.178 4.899.696.258 1.136-.124.982-.85-.593-2.778-1.884-7.994-2.42-10.145a1.835 1.835 0 0 0-1.19-1.294c-2.92-.984-12.096-3.911-20.769-4.945-.559-.067-.928.328-.817.879.255 1.283.683 3.582.858 5.496.232 2.518.407 4.383.492 5.293.034.36.325.64.686.665v.002ZM89.543 26.174c-9.622.794-22.871 4.2-26.226 5.095a1.454 1.454 0 0 0-1.029 1.007 262.445 262.445 0 0 0-2.723 10.173.74.74 0 0 0 .969.871c3.378-1.224 13.232-4.308 27.945-4.824a.737.737 0 0 0 .716-.716c.024-.86.103-2.525.359-5.038.288-2.847.587-4.687.778-5.692.1-.528-.253-.922-.786-.878l-.003.002Z"/><path stroke="#363D4C" stroke-linecap="round" stroke-linejoin="round" stroke-width="2.834" d="M91.46 87.391c1.182 1.41 4.089 2.82 7.874 2.82 3.785 0 6.746-1.41 7.875-2.82"/><path fill="#212435" d="M107.395 72.848c-2.682-2.343-13.103-2.343-16.298 0-1.404 1.064-.299 5.365 1.023 5.919 1.32.554 1.832-.51 3.662-.34 1.618.128 2.128 2.81 3.491 2.81s1.789-2.681 3.407-2.81c1.832-.214 2.342.894 3.661.34 1.364-.64 2.283-4.845 1.052-5.92h.002Z"/><path fill="#fff" d="M70.454 67.032c-.631-6.31 3.196-10.447 9.92-10.444 5.577.002 12.437 3.896 10.272 13.247-1.165 2.7-3.96 5.618-10.506 5.182-4.61-.306-8.918-3.167-9.686-7.985Z"/><path fill="#070812" d="M82.007 71.97a5.56 5.56 0 1 0 0-11.122 5.56 5.56 0 0 0 0 11.121Z"/><path fill="#fff" d="M78.23 65.44a2.128 2.128 0 1 0 0-4.257 2.128 2.128 0 0 0 0 4.256Z"/><path fill="#656D72" d="M81.473 57.235c-7.877-.65-11.462 6.04-11.018 9.794-1.067-4.581 2.267-12.721 11.175-11.917 7.156.646 11.372 7.122 9.014 14.723.827-4.54-.711-11.902-9.171-12.597v-.003Z"/><path fill="#363D4C" d="M79.081 48.299c-4.6 1.234-7.027 6.004-7.027 6.004 7.367-6.643 14.948-2.257 14.948-2.257s-3.28-4.94-7.92-3.747Z"/><path fill="#fff" d="M127.965 67.032c.631-6.31-3.196-10.446-9.921-10.444-5.576.003-12.436 3.896-10.271 13.248 1.164 2.7 3.96 5.617 10.505 5.181 4.61-.306 8.919-3.166 9.687-7.985Z"/><path fill="#070812" d="M116.41 71.97a5.56 5.56 0 1 0 .001-11.122 5.56 5.56 0 0 0-.001 11.121Z"/><path fill="#fff" d="M112.641 65.44a2.129 2.129 0 1 0 0-4.258 2.129 2.129 0 0 0 0 4.257Z"/><path fill="#656D72" d="M116.943 57.235c7.878-.65 11.462 6.04 11.019 9.794 1.067-4.581-2.268-12.721-11.176-11.917-7.156.646-11.371 7.122-9.013 14.723-.828-4.54.711-11.902 9.17-12.597v-.003Z"/><path fill="#363D4C" d="M111.362 52.09s7.581-4.386 14.948 2.257c0 0-2.427-4.811-7.027-6.004-4.599-1.235-7.921 3.746-7.921 3.746Z"/><rect width="169" height="40" x="180" y="33" fill="#E594C5" rx="20"/><path fill="#fff" d="M211.4 59V46.6h-7.6V59h-1.7V45h11v14h-1.7Zm4.635-4.5c0-2.7 1.92-4.7 4.8-4.7s4.8 2 4.8 4.7-1.92 4.7-4.8 4.7-4.8-2-4.8-4.7Zm1.7 0c0 1.88 1.3 3.2 3.1 3.2s3.1-1.28 3.1-3.2c0-1.88-1.3-3.2-3.1-3.2-1.76 0-3.1 1.3-3.1 3.2Zm10.209 4.5v-9h1.6v7.5h3.3V50h1.6v7.5h3.3V50h1.6v9h-11.4Zm20.457 0v-7.4h-3.16l-.1 1.52c-.4 5.12-1.76 6-3.62 6l-.12-1.56c.68.06 1.96-.6 2.18-4.76l.16-2.8h6.26v9h-1.6Zm6.084 0h-1.6v-9h1.6v6.7l5.2-6.7h1.6v9h-1.6v-6.7l-5.2 6.7Zm14.201 0v-9h5.7v1.5h-4.1V59h-1.6Zm15.661-9-3.6 9c-1.32 3.22-2.16 4-3.44 4-.68 0-1.22-.24-1.7-.56l.52-1.22c.3.14.64.3 1 .3.76 0 1.32-.6 1.92-2.04l.2-.48-4.32-9h1.92l2.64 5.72c.2.46.36.9.54 1.36.12-.44.26-.9.42-1.38l2.08-5.7h1.82Zm7.159 9v-7.4h-3.16l-.1 1.52c-.4 5.12-1.76 6-3.62 6l-.12-1.56c.68.06 1.96-.6 2.18-4.76l.16-2.8h6.26v9h-1.6Zm8.425-9h2.8v9h-1.6v-3h-1.74l-2.2 3h-1.94l2.6-3.4c-.92-.22-1.94-1.12-1.94-2.6 0-1.54 1.02-3 4.02-3Zm-2.32 3.04c0 .92.88 1.46 1.68 1.46h1.84v-3h-1.46c-1.5 0-2.06.7-2.06 1.54Zm6.888-1.44V50h8.2v1.6h-3.3V59h-1.6v-7.4h-3.3Zm9.949 7.4v-9h1.6v2.7h1.64c2.76 0 3.56 1.5 3.56 3.1 0 1.58-.92 3.2-3.76 3.2h-3.04Zm2.94-4.8h-1.34v3.3h1.32c1.58 0 2.18-.58 2.18-1.64 0-1.08-.62-1.66-2.16-1.66Zm6.805.5V45h1.7v9.7h-1.7Zm-.26 3.22c0-.52.44-1.06 1.16-1.06.62 0 1.06.54 1.06 1.06 0 .6-.44 1.14-1.06 1.14-.72 0-1.16-.54-1.16-1.14Z"/><path fill="#E594C5" d="M331.743 72.019h-13.96a19.247 19.247 0 0 0 16.776 9.811h4.686l-3.397-2.22a9.07 9.07 0 0 1-4.105-7.591Z"/><rect width="204.434" height="39.245" x="156" y="92" fill="#FAEBF7" rx="19.623"/><path fill="#2C2620" d="M182.217 117.623v-6.34h-7.7v6.34h-1.7v-14h1.7v6.06h7.7v-6.06h1.7v14h-1.7Zm5.713-7.1-.42-1.28c.8-.5 1.88-.82 3-.82 2.56 0 3.46 1.34 3.46 3.68v5.52h-1.52v-1.16c-.54.68-1.4 1.3-2.88 1.3-1.64 0-2.76-1.04-2.76-2.78 0-1.84 1.46-2.86 3.4-2.86.7 0 1.64.14 2.24.58 0-1.68-.26-2.84-2.04-2.84-1.1 0-1.76.28-2.48.66Zm2.2 5.8c1.18 0 1.86-.62 2.32-1.16v-1.14c-.56-.4-1.24-.6-2.02-.6-.96 0-1.92.44-1.92 1.48 0 .86.58 1.42 1.62 1.42Zm13.019 1.3v-7.5h-4.9v7.5h-1.6v-9h8.1v9h-1.6Zm6.096 0h-1.6v-9h1.6v6.7l5.2-6.7h1.6v9h-1.6v-6.7l-5.2 6.7Zm9.709 0v-9h1.6v7.5h3.3v-7.5h1.6v7.5h3.3v-7.5h1.6v9h-11.4Zm15.897 0h-1.6v-9h1.6v6.7l5.2-6.7h1.6v9h-1.6v-6.7l-5.2 6.7Zm21.121-2.46.76 1.16c-.76.98-2.08 1.5-3.46 1.5-2.86 0-4.82-1.86-4.82-4.7 0-2.62 1.92-4.7 4.56-4.7 1.44 0 2.7.34 3.54 1.18l-.74 1.26c-.76-.7-1.64-.94-2.58-.94-1.62 0-3.08 1.3-3.08 3.2 0 1.98 1.46 3.2 3.24 3.2 1.08 0 1.98-.48 2.58-1.16Zm2.845 2.46v-9c.78 0 1.96-.08 3.26-.08 2.52 0 3.88.7 3.88 2.32 0 1.06-.72 1.9-1.8 2.06v.04c1.44.26 2.1 1 2.1 2.12 0 1.7-1.34 2.62-4.14 2.62-1.12 0-2.48-.08-3.3-.08Zm3.52-4.04h-1.92v2.76c.48.02 1.12.06 1.84.06 1.48 0 2.3-.5 2.3-1.44s-.78-1.38-2.22-1.38Zm-.14-3.74c-.72 0-1.38.04-1.78.06v2.68h2.02c1.06 0 1.82-.52 1.82-1.4 0-.98-.9-1.34-2.06-1.34Zm5.903 3.28c0-2.7 1.92-4.7 4.8-4.7s4.8 2 4.8 4.7-1.92 4.7-4.8 4.7-4.8-2-4.8-4.7Zm1.7 0c0 1.88 1.3 3.2 3.1 3.2s3.1-1.28 3.1-3.2c0-1.88-1.3-3.2-3.1-3.2-1.76 0-3.1 1.3-3.1 3.2Zm11.809 4.5h-1.6v-9h1.6v6.7l5.2-6.7h1.6v9h-1.6v-6.7l-5.2 6.7Zm-.32-13.6h1.5c.08 1.08.58 1.58 1.54 1.58.88 0 1.38-.5 1.46-1.58h1.5c0 1.58-1.16 2.8-2.96 2.8-1.98 0-3.04-1.22-3.04-2.8Zm15 6.5-.42-1.28c.8-.5 1.88-.82 3-.82 2.56 0 3.46 1.34 3.46 3.68v5.52h-1.52v-1.16c-.54.68-1.4 1.3-2.88 1.3-1.64 0-2.76-1.04-2.76-2.78 0-1.84 1.46-2.86 3.4-2.86.7 0 1.64.14 2.24.58 0-1.68-.26-2.84-2.04-2.84-1.1 0-1.76.28-2.48.66Zm2.2 5.8c1.18 0 1.86-.62 2.32-1.16v-1.14c-.56-.4-1.24-.6-2.02-.6-.96 0-1.92.44-1.92 1.48 0 .86.58 1.42 1.62 1.42Zm5.28 3.5v-3.7h1.12c.6-.76 1.22-2.66 1.38-5.12l.14-2.38h6.14v7.5h1.5v3.7h-1.5v-2.2h-7.28v2.2h-1.5Zm4.04-8.2c-.2 2.3-.8 3.94-1.22 4.5h4.36v-6h-3.04l-.1 1.5Zm7.981 10v-13h1.6v1.06c.62-.72 1.82-1.26 3.06-1.26 2.56 0 4.16 1.9 4.16 4.56 0 2.74-1.86 4.84-4.68 4.84-.96 0-1.9-.2-2.54-.62v4.42h-1.6Zm4.2-11.7c-1.06 0-2.04.54-2.6 1.24v4.46c.8.54 1.54.7 2.4.7 1.92 0 3.12-1.38 3.12-3.28 0-1.82-1.06-3.12-2.92-3.12Zm14.013 5.46.5 1.26c-.88.8-2.18 1.18-3.38 1.18-2.92 0-4.82-1.86-4.82-4.7 0-2.62 1.68-4.7 4.64-4.7 2.32 0 4.18 1.64 4.18 4.12 0 .44-.04.8-.1 1.08h-6.92c.14 1.7 1.38 2.7 3.14 2.7 1.16 0 2.18-.4 2.76-.94Zm-3.14-5.46c-1.64 0-2.68 1.02-2.86 2.4h5.46c-.08-1.48-1.04-2.4-2.6-2.4Zm13.234 5.24.76 1.16c-.76.98-2.08 1.5-3.46 1.5-2.86 0-4.82-1.86-4.82-4.7 0-2.62 1.92-4.7 4.56-4.7 1.44 0 2.7.34 3.54 1.18l-.74 1.26c-.76-.7-1.64-.94-2.58-.94-1.62 0-3.08 1.3-3.08 3.2 0 1.98 1.46 3.2 3.24 3.2 1.08 0 1.98-.48 2.58-1.16Z"/><path fill="#FAEBF7" d="M174.541 131.019H188.5a19.246 19.246 0 0 1-16.776 9.811h-4.686l3.397-2.221a9.07 9.07 0 0 0 4.106-7.59Z"/></g><defs><clipPath id="a"><rect width="384" height="157" fill="#fff" rx="20"/></clipPath></defs></svg>