<svg xmlns="http://www.w3.org/2000/svg" fill="none" viewBox="0 0 32 33"><path fill="#07F" d="M31.83 25.113a2.276 2.276 0 0 0-.108-.212c-.555-1.023-1.616-2.278-3.182-3.765l-.034-.034-.016-.017-.017-.017h-.017c-.71-.693-1.16-1.159-1.349-1.397-.345-.455-.422-.915-.234-1.38.133-.352.634-1.096 1.5-2.232.455-.602.816-1.084 1.083-1.448 1.921-2.612 2.755-4.28 2.499-5.008l-.1-.17c-.066-.102-.238-.195-.515-.28-.279-.086-.634-.1-1.067-.043l-4.798.034c-.078-.028-.19-.026-.334.008l-.216.052-.084.042-.066.051a.748.748 0 0 0-.183.18 1.173 1.173 0 0 0-.167.297 28.097 28.097 0 0 1-1.783 3.833 36.4 36.4 0 0 1-1.133 1.831c-.344.517-.633.897-.866 1.141a6.1 6.1 0 0 1-.633.588c-.19.148-.333.21-.433.188-.1-.023-.195-.046-.284-.069a1.125 1.125 0 0 1-.374-.417 1.902 1.902 0 0 1-.192-.665 7.5 7.5 0 0 1-.058-.69c-.006-.192-.003-.465.008-.817.012-.352.017-.59.017-.716 0-.431.008-.9.024-1.405.017-.505.03-.906.042-1.2.012-.296.017-.608.017-.938 0-.33-.02-.587-.059-.775a2.685 2.685 0 0 0-.174-.545.913.913 0 0 0-.341-.409 1.902 1.902 0 0 0-.559-.23c-.588-.136-1.338-.21-2.25-.221-2.065-.023-3.392.114-3.981.409a2.252 2.252 0 0 0-.633.51c-.2.25-.228.387-.084.41.667.101 1.139.346 1.417.732l.1.204c.078.148.155.41.233.784.078.375.128.79.15 1.243.055.83.055 1.54 0 2.13-.056.59-.108 1.05-.158 1.38-.05.329-.126.596-.225.8-.1.204-.167.33-.2.375a.29.29 0 0 1-.084.085 1.223 1.223 0 0 1-.45.085c-.155 0-.344-.08-.566-.239a4.028 4.028 0 0 1-.691-.655c-.24-.279-.509-.668-.809-1.167-.3-.5-.61-1.09-.932-1.772l-.267-.494c-.167-.318-.394-.78-.683-1.388a27.079 27.079 0 0 1-.766-1.763 1.12 1.12 0 0 0-.4-.545L6.28 9.33a1.133 1.133 0 0 0-.266-.144 1.739 1.739 0 0 0-.383-.111l-4.565.034c-.467 0-.784.108-.95.324l-.067.102a.562.562 0 0 0-.05.273c0 .124.033.278.1.46A56.782 56.782 0 0 0 2.274 14.9c.783 1.488 1.464 2.686 2.041 3.594a42.48 42.48 0 0 0 1.766 2.572c.6.806.997 1.323 1.191 1.55.195.228.348.398.459.511l.416.409c.267.273.658.599 1.175.98.516.38 1.088.755 1.716 1.124.628.369 1.358.67 2.19.903a7.418 7.418 0 0 0 2.433.28h1.917c.388-.033.683-.158.883-.374l.066-.085c.044-.068.086-.173.125-.315.039-.142.058-.299.058-.469a5.735 5.735 0 0 1 .108-1.32c.083-.391.178-.686.284-.885a2.176 2.176 0 0 1 .642-.75c.055-.028.099-.048.132-.06.267-.09.58-.002.942.265.361.267.7.596 1.016.988.317.392.697.832 1.142 1.32.444.488.833.851 1.166 1.09l.333.205c.222.136.511.261.867.374.355.114.665.142.932.086l4.265-.068c.422 0 .75-.072.983-.213.234-.142.372-.299.417-.469.045-.17.047-.363.009-.58a2.18 2.18 0 0 0-.118-.45Z"/></svg>