<svg xmlns="http://www.w3.org/2000/svg" fill="none" viewBox="0 0 334 143"><g clip-path="url(#a)"><circle cx="53.766" cy="48.446" r="32.904" fill="#FFDE7A" transform="rotate(16.169 53.766 48.446)"/><circle cx="53.903" cy="48.696" r="27.05" fill="#F4C10B" transform="rotate(16.169 53.903 48.696)"/><circle cx="53.903" cy="48.696" r="23.82" fill="#C2C9EC" transform="rotate(16.169 53.903 48.696)"/><circle cx="53.896" cy="48.705" r="23.715" fill="#FFDE7A" transform="rotate(16.169 53.896 48.705)"/><path fill="#F4C10B" d="m49.91 50.083-.755 2.603 11.678 3.386-1.153 3.977-11.678-3.386-1.132 3.905-7.773-2.254 1.132-3.904-2.603-.755 1.153-3.977 2.603.755.755-2.603-2.603-.755 1.153-3.977 2.603.755 3.145-10.846 16.088 4.664c3.615 1.049 6.136 2.537 7.563 4.466 1.457 1.912 1.847 4.037 1.17 6.375-1.385 4.772-5.728 6.1-13.03 3.982l-8.316-2.41Zm2.568-8.857-1.415 4.88 7.592 2.202c1.205.35 2.16.39 2.864.125.705-.267 1.168-.785 1.392-1.556.217-.748.099-1.422-.354-2.024-.453-.601-1.282-1.077-2.487-1.426l-7.592-2.201Z"/><circle cx="94.675" cy="107.254" r="23.341" fill="#FFDE7A" transform="rotate(-60.276 94.675 107.254)"/><circle cx="94.87" cy="107.2" r="19.189" fill="#F4C10B" transform="rotate(-60.276 94.87 107.2)"/><circle cx="94.87" cy="107.2" r="16.898" fill="#C2C9EC" transform="rotate(-60.276 94.87 107.2)"/><circle cx="94.875" cy="107.207" r="16.823" fill="#FFDE7A" transform="rotate(-60.276 94.875 107.207)"/><path fill="#F4C10B" d="m95.163 110.185 1.67.953 4.276-7.49 2.55 1.456-4.276 7.49 2.505 1.43-2.847 4.986-2.504-1.43-.954 1.67-2.55-1.457.953-1.669-1.67-.954-.953 1.67-2.55-1.456.953-1.67-6.957-3.972L88.7 99.423c1.324-2.319 2.77-3.81 4.337-4.473 1.561-.687 3.091-.603 4.59.254 3.062 1.747 3.255 4.963.58 9.647l-3.044 5.334Zm-5.682-3.244 3.131 1.788 2.78-4.87c.442-.773.629-1.425.563-1.954-.067-.53-.347-.937-.842-1.219-.48-.274-.964-.304-1.454-.092s-.956.705-1.397 1.477l-2.78 4.87Z"/><g clip-path="url(#b)"><path fill="#CA2E8C" d="M207.298 139.513c38.68 8.394 75.651-10.622 82.562-42.47 6.911-31.846-18.852-64.476-57.531-72.87-38.697-8.397-75.651 10.622-82.562 42.469-6.911 31.847 18.835 64.473 57.531 72.871Z"/><path fill="#CA2E8C" d="M290.056 100.241a31.057 31.057 0 0 1-2.77-.742l2.112-6.516c3.748 1.217 8.833 1.654 11.08-.259 1.242-1.062 1.661-3.074 1.23-5.989l6.742-1.007c.981 6.731-1.409 10.348-3.591 12.205-3.831 3.269-9.739 3.407-14.803 2.308ZM240.671 135.47l23.203-6.775 2.383 22.298-16.782 4.91-8.804-20.433ZM185.607 125.255l-18.308-15.784-11.411 19.306 13.237 11.423 16.482-14.945ZM161.984 58.008l-19.773-4.291-6.228 28.701 19.773 4.291 6.228-28.701ZM189.424 6.556l14.59 25.28-23.743 2.506 9.153-27.786Z"/><path fill="#000" d="M174.173 73.375c3.332.723 6.635-1.399 7.365-4.763.726-3.347-1.38-6.66-4.728-7.387-3.349-.726-6.636 1.4-7.366 4.763-.713 3.367 1.397 6.664 4.729 7.387Z"/><path fill="#F90" d="M253.405 35.318a16.114 16.114 0 0 1-5.414 8.954 58.398 58.398 0 0 0-3.415-1.705 50.793 50.793 0 0 0-2.546-1.13 46.861 46.861 0 0 0-2.261-.912c-3.106-1.2-6.922-2.185-10.57-2.977a151.53 151.53 0 0 0-2.772-.567 237.386 237.386 0 0 0-4.027-.733 15.986 15.986 0 0 1-.212-7.704c1.878-8.652 10.392-14.13 18.988-12.264 8.595 1.865 14.103 10.403 12.229 19.038Z"/><path fill="#F16F04" d="M240.539 19.857c-6.713-1.457-13.348 2.833-14.808 9.56a12.35 12.35 0 0 0 .729 7.571c.903.179 1.84.365 2.773.567a10.225 10.225 0 0 1-1.336-7.667c1.202-5.54 6.663-9.086 12.194-7.886 5.513 1.197 9.014 6.688 7.812 12.227a10.319 10.319 0 0 1-5.839 7.215c.896.37 1.739.745 2.545 1.13a12.46 12.46 0 0 0 5.459-7.875c1.444-6.73-2.833-13.39-9.529-14.842Z"/><path stroke="#000" stroke-width="3.409" d="M254.7 48.321s-5.948-4.34-14.931-7.796c-8.983-3.456-23.897-5.221-23.897-5.221"/><path fill="#EFCCEA" d="m218.502 88.69-.839 3.866 17.258 3.745-1.282 5.908-17.258-3.745-1.26 5.807-11.494-2.495 1.26-5.807-3.848-.835 1.282-5.907 3.848.835.839-3.866-3.848-.835 1.282-5.908 3.848.835 3.494-16.099 23.787 5.162c5.347 1.16 9.153 3.073 11.402 5.734 2.305 2.638 3.072 5.696 2.32 9.16-1.54 7.096-7.724 9.469-18.501 7.13l-12.294-2.668.004-.017Zm2.858-13.17-1.572 7.246 11.21 2.433c1.766.383 3.168.354 4.159-.114.991-.468 1.617-1.261 1.867-2.416.24-1.105-.001-2.085-.712-2.906-.725-.84-1.972-1.444-3.737-1.827L221.36 75.52Z"/></g></g><defs><clipPath id="a"><path fill="#fff" d="M0 .453h334v142H0z"/></clipPath><clipPath id="b"><path fill="#fff" d="M154.421-2.547 321 33.603l-28.92 133.263-166.579-36.15z"/></clipPath></defs></svg>