<svg xmlns="http://www.w3.org/2000/svg" fill="none" viewBox="0 0 368 391"><path fill="#6733AA" d="M105.832 196.378s12.628 38.348 78.02 25.531c2.908-3.132 4.166-7.215 6.724-11.647-20.526 1.754-59.812-21.959-61.381-55.777-5.788 15.142-13.555 29.072-23.363 41.893Z"/><path fill="#974CB9" d="M190.576 210.262s-44.288-27.425-84.744-13.884l22.062-41.545c35.427-3.045 68.497 17.628 80.972 50.528l-18.29 4.901Z"/><path fill="#6733AA" d="M275.07 151.03s8.238 39.524-54.802 61.12c-4.083-1.258-7.214-4.165-11.646-6.724 18.328-8.657 40.82-48.923 25.269-78.995a208.588 208.588 0 0 0 41.179 24.599Z"/><path fill="#974CB9" d="M208.948 205.339s24.317-45.808 66.448-54.396l-39.878-24.948c-32.203 15.076-50.506 49.515-44.859 84.245l18.289-4.901Z"/><path fill="#7B46BF" d="m212.791 350.066 113.232-30.34c5.69-1.525 8.009-6.851 5.423-11.298l-30.34-113.232-.087-.325c-1.176-4.39-5.846-6.536-9.91-5.447l-113.232 30.34c-4.715 1.263-6.709 6.502-5.424 11.298l30.341 113.232.087.325c1.089 4.064 5.765 6.558 9.91 5.447Z"/><path fill="#582798" d="m147.6 367.534 114.532-30.688.325-.088c4.39-1.176 6.536-5.846 5.447-9.91l-30.689-114.532-.087-.325c-1.176-4.39-5.846-6.536-9.91-5.447l-114.532 30.688-.325.088c-4.39 1.176-6.536 5.846-5.447 9.91l30.689 114.532.087.325c1.089 4.065 5.846 6.536 9.91 5.447Z"/><path fill="#974CB9" d="m304.748 216.261-75.596 20.256c-2.758 1.088-5.953-.757-7.041-3.515l-.174-.65-6.099-22.76c-1.087-2.758.671-6.279 3.516-7.041l.65-.174 75.596-20.256c2.758-1.088 6.278.67 7.04 3.515l.175.65 6.098 22.76c1.825 2.909-.995 6.366-4.165 7.215Z"/><path fill="#8040B2" d="m232.646 235.581-118.922 31.865c-2.52.675-4.977-1.019-5.565-3.214l-6.796-25.361c-.35-2.607 1.019-4.978 3.213-5.566l118.922-31.865c2.607-.35 4.978 1.019 5.566 3.214l6.774 25.28c.609 2.276-1.084 4.733-3.192 5.647Z"/><path fill="#974CB9" d="m175.29 214.009-25.28 6.774 36.439 135.992 25.28-6.774-36.439-135.992Z"/><path fill="#6733AA" d="m279.337 186.13-25.28 6.773 36.438 135.992 25.28-6.773-36.438-135.992Z"/><path fill="#8040B2" d="m302.816 219.131-10.792 5.244-2.88 12.01-47.361-40.193 24.955-6.686 36.078 29.625Z"/><path fill="#E594C5" d="M266.009 102.979c6.491-1.863 8.828-4.424 10.126-12.106.26-1.164 2.078-1.164 2.078 0 1.558 7.915 3.894 10.243 10.126 12.338 1.039.466 1.039 1.863 0 1.863-6.232 1.862-8.828 4.423-10.126 11.873-.26 1.164-2.078 1.164-2.337 0-1.558-7.45-3.895-10.011-10.127-11.873-1.038-.699-1.038-2.095.26-2.095ZM157.953 74.546c5.871-1.183 8.12-3.28 9.817-9.978.313-1.01 1.92-.88 1.836.148.812 7.109 2.711 9.334 8.071 11.632.885.485.785 1.72-.133 1.646-5.643 1.2-8.121 3.28-9.801 9.772-.313 1.01-1.92.88-2.066-.167-.845-6.697-2.728-9.128-8.104-11.22-.868-.691-.768-1.926.38-1.833ZM207.491 28.568c9.596-2.808 13.051-6.669 14.97-18.252.384-1.755 3.071-1.755 3.071 0 2.303 11.934 5.757 15.444 14.969 18.603 1.536.702 1.536 2.808 0 2.808-9.212 2.808-13.05 6.67-14.969 17.901-.384 1.755-3.071 1.755-3.455 0-2.303-11.232-5.757-15.093-14.969-17.9-1.536-1.054-1.536-3.16.383-3.16Z"/></svg>