<svg xmlns="http://www.w3.org/2000/svg" fill="none" viewBox="0 0 375 206"><g clip-path="url(#a)"><path fill="#7A001D" d="M252.597 230.442c8.443 11.482 29.113 14.701 39.074 3.893 16.445-17.845-3.585-43.684 4.421-51.16 7.905-7.378 19.218.181 16.813 13.624 0 0 15.092-5.457 10.17-21.982 0 0 2.814 1.713 4.389 7.957 0 0 1.814-23.537-22.575-31.167-24.392-7.631-42.839 10.754-38.66 34.193 4.017 22.541 8.171 25.075 3.186 31.321-4.985 6.246-15.704-.672-18.975.854-3.271 1.526-1.328 7.726 2.157 12.467Z"/><path fill="#CE5B29" d="m242.998 151.42 1.074-13.6a6.518 6.518 0 1 1 12.994 1.027l-1.074 13.6 8.39 2.016a1.38 1.38 0 0 1 1.015 1.698c-1.752 6.502-8.083 12.038-17.13 11.324-9.048-.715-14.037-7.187-14.946-14.112a1.39 1.39 0 0 1 1.312-1.566l8.365-.387Z"/><path fill="#DB652A" d="M230.319 168.918c-5.196 3.953-8.855 8.52-11.073 12.594-3.416 6.271.727 12.42 6.831 13.554 7.799 1.449 7.633 9.614 4.316 12.445-4.087 3.486-14.761 1.334-20.682-4.414-19.381-18.813 1.256-41.287 11.227-47.612 3.016 2.157 7.85 9.127 9.384 13.433h-.003Z"/><path fill="#DB652A" d="M224.762 170.529a8.198 8.198 0 1 1 1.29-16.345 8.198 8.198 0 0 1-1.29 16.345Z"/><path fill="#FFD8D2" d="M234.435 164.94c.983-3.6-.29-7.445-2.723-9.38-2.977-2.361-6.834-3.202-10.485-1.189-7.173 3.957-14.667 12.39-14.667 12.39 3.989 7.095 10.979 12.924 18.838 15.233 0 0 7.137-10.095 9.037-17.057v.003Z"/><path fill="#FFD8D2" d="M224.872 171.6a9.181 9.181 0 1 1 1.446-18.304 9.181 9.181 0 0 1-1.446 18.304Z"/><path fill="#DB652A" d="M265.437 171.692c4.512 4.72 7.408 9.804 8.959 14.175 2.389 6.73-2.668 12.153-8.874 12.314-7.929.207-9.047 8.297-6.216 11.614 3.489 4.084 14.369 3.634 21.118-1.113 22.095-15.537 5.241-40.972-3.613-48.784-3.317 1.657-9.186 7.782-11.377 11.794h.003Z"/><path fill="#DB652A" d="M270.673 174.155a8.198 8.198 0 1 1 1.291-16.345 8.198 8.198 0 0 1-1.291 16.345Z"/><path fill="#FFD8D2" d="M262.095 167.125c-.406-3.71 1.455-7.307 4.161-8.836 3.311-1.865 7.252-2.09 10.542.471 6.463 5.034 12.54 14.538 12.54 14.538-5.053 6.382-12.871 11.041-20.995 12.088 0 0-5.464-11.09-6.248-18.264v.003Z"/><path fill="#FFD8D2" d="M270.494 175.203a9.18 9.18 0 0 1-8.429-9.875 9.18 9.18 0 0 1 9.875-8.429 9.18 9.18 0 0 1 8.429 9.875 9.18 9.18 0 0 1-9.875 8.429Z"/><path fill="#FFE8E3" d="M227.774 152.922s3.493-1.183 7.964-1.165c.673 2.869 2.375 9.26 12.984 9.96 10.797.716 13.271-5.432 14.278-7.583 3.728.489 8.01 2.697 8.01 2.697l-4.475 38.962a7.203 7.203 0 0 1-7.723 6.359l-26.157-2.066a7.2 7.2 0 0 1-6.628-7.498l1.75-39.663-.003-.003Z"/><path fill="#FF5050" d="m226.163 153.114 4.614-.915.884 14.715c4.573 1.233 10.809 3.634 16.174 8.256 7.328-3.415 13.758-4.842 18.054-5.435l2.06-14.246 4.47 1.448-3.455 44.191a12.677 12.677 0 0 1-9.319 11.244l-10.778 2.925a12.661 12.661 0 0 1-8.499-.665l-10.286-4.604a12.68 12.68 0 0 1-7.456-12.576l3.537-44.338Z"/><path fill="#FF7171" d="m226.146 192.929 19.616 9.064 20.436-5.859a3.294 3.294 0 0 1 4.148 2.571c2.334 12.685 6.972 37.83 9.341 50.268 0 0-9.764 10.743-38.484 8.475-31.191-2.463-36.654-14.409-36.654-14.409 4.28-11.92 12.814-36.059 17.107-48.217a3.292 3.292 0 0 1 4.487-1.893h.003Z"/><path fill="#FFD233" d="m270.475 199.412-25.23 6.332-23.837-10.207 1.757-4.988 22.59 10.074 23.764-6.449.956 5.238Z"/><path fill="#F260AF" d="m220.189 207.778 34.779 2.747c1.166.063 2.207-.825 2.27-1.989l1.792-22.689a2.167 2.167 0 0 0-1.93-2.32l-34.779-2.746c-1.167-.064-2.207.825-2.271 1.988l-1.791 22.689c-.121 1.159.739 2.197 1.93 2.32Z"/><path fill="#F260AF" d="m238.839 209.254 31.115 2.457c.964.077 1.832-.768 1.92-1.875l1.814-22.968c.089-1.136-.638-2.078-1.602-2.154l-31.115-2.457c-.964-.076-1.832.768-1.92 1.875l-1.814 22.968c-.087 1.108.609 2.076 1.602 2.154Z"/><path fill="#C6B9FE" d="m243.584 182.431 6.958.55-2.135 27.029-6.957-.55 2.134-27.029Z"/><path fill="#937AFF" d="M269.872 169.657s-1.304 9.64-17.433 9.509c-.092.079-2.125-2.396-2.125-2.396 5.009-.489 13.486-7.991 12.351-16.052a40.603 40.603 0 0 0 7.207 8.939Z"/><path fill="#C6B9FE" d="M250.312 176.795s9.396-8.627 19.561-7.141l-7.21-8.91s-13.921.844-17.122 15.675l4.768.376h.003Z"/><path fill="#937AFF" d="M227.343 166.298s-.225 9.725 15.725 12.128c.079.092 2.475-2.033 2.475-2.033-4.87-1.269-12.065-10.009-9.679-17.791a42.194 42.194 0 0 1-8.521 7.696Z"/><path fill="#C6B9FE" d="M245.544 176.419s-7.922-9.995-18.198-10.123l8.52-7.669s13.587 3.017 14.449 18.169l-4.771-.377Z"/><path fill="#FF78AF" d="m220.026 183.003 24.018 1.897c.568.045 1.06-.401 1.074-.943l.544-6.9c.045-.568-.372-1.057-.912-1.1l-23.99-1.895c-.567-.044-1.059.402-1.073.944l-.543 6.871c-.073.566.345 1.055.882 1.126Z"/><path fill="#FF78AF" d="m241.119 184.669 32.904 2.599a.758.758 0 0 0 .745-.743l.581-7.353a.76.76 0 0 0-.619-.851l-32.905-2.598a.758.758 0 0 0-.745.742l-.58 7.354c-.06.394.227.762.619.85Z"/><path fill="#C6B9FE" d="m244.097 175.905 6.957.55-.707 8.946-6.957-.549.707-8.947Z"/><path fill="#DB652A" d="M274.237 192.762c-1.391 2.703-4.015 5.17-8.711 5.416-8.552.448-8.708 8.036-6.217 11.613 3.129 4.487 14.369 3.635 21.119-1.112.746-.525 4.683-2.956 1.757-11.015-1.991-5.475-7.133-6.485-7.948-4.905v.003Z"/><path fill="#A0370D" d="M270.756 203.095s-4.141 4.123-8.885 2.634c-2.127-.669-2.756-2.972-2.756-2.972s.965.794 2.875 1.188c4.306.892 8.766-.85 8.766-.85Z"/><path fill="#DB652A" d="M218.324 188.346c.949 2.888 3.154 5.737 7.753 6.716 8.376 1.785 7.338 9.304 4.316 12.446-3.794 3.94-14.761 1.334-20.682-4.414-.655-.636-4.161-3.655-.006-11.154 2.825-5.095 8.063-5.285 8.619-3.597v.003Z"/><path fill="#A0370D" d="M220.137 199.097s3.441 4.722 8.361 3.996c2.206-.327 3.188-2.503 3.188-2.503s-1.078.633-3.025.722c-4.393.206-8.524-2.215-8.524-2.215ZM219.192 203.823s3.442 4.722 8.361 3.997c2.206-.327 3.189-2.503 3.189-2.503s-1.085.718-3.033.81c-4.393.206-8.52-2.304-8.52-2.304h.003Z"/><path fill="#7A001D" d="M220.617 56.08s-2.076-19.349-15.128-23.763c-11.058-3.721-21.147-.346-26.527 8.812-6.259 10.66-4.153 22.35 6.48 26.707 8.182 3.353 11.32-2.99 11.32-2.99s1.547 3.451-2.268 9.036c4.134-.606 9.751-5.73 9.303-11.98-.351-4.691-1.699-9.449 1.596-11.599 4.126-2.694 8.904 5.364 8.904 5.364l4.827 10.791c1.052 1.673 3.578.369 2.938-1.517l-1.445-8.864v.003Z"/><path fill="#FF7171" d="M218.8 54.714a5.226 5.226 0 1 1 .823-10.419 5.226 5.226 0 0 1-.823 10.419Z"/><path fill="#FFD233" d="M213.188 60.894a5.226 5.226 0 1 1 .823-10.419 5.226 5.226 0 0 1-.823 10.42Z"/><path fill="#7A001D" d="M299.789 67.128s5.468-18.677 19.096-20.71c11.544-1.706 20.999 3.871 24.549 13.37 4.327 11.579.133 22.733-11.102 25.14-8.647 1.852-10.61-4.946-10.61-4.946s-2.133 3.122.632 9.294c-3.959-1.328-8.583-7.365-7.037-13.44 1.177-4.554 3.344-8.999.48-11.699-3.586-3.38-9.712 3.705-9.712 3.705l-6.662 9.769c-1.331 1.459-3.588-.27-2.624-2.011l2.992-8.469-.002-.003Z"/><path fill="#FF7171" d="M302.088 66.106a5.226 5.226 0 1 1 .823-10.419 5.226 5.226 0 0 1-.823 10.419Z"/><path fill="#FFD233" d="M306.518 73.182a5.224 5.224 0 0 1-4.797-5.62 5.225 5.225 0 1 1 10.418.822 5.225 5.225 0 0 1-5.621 4.798Z"/><path fill="#DB652A" d="M252.385 30.172c-.324-1.71-.631-3.851-.726-7.051-.183-6.942.585-15.13-2.799-16.658-6.301-2.872-20.61 18.522-17.164 30.11.59 1.984 5.106 2.398 13.118-.62 5.997-2.26 7.877-4.19 7.575-5.78h-.004Z"/><path fill="#FED5C3" d="M245.641 15.77c1.732.877.762 5.439.967 9.704.082 2.276.213 3.936.403 5.324.029.203.56 2.531.767 3.914-.852.401-1.836.815-2.968 1.243a43.385 43.385 0 0 1-4.712 1.499c-.802-1.079-1.538-2.433-1.916-3.385-3.42-8.599 4.439-19.828 7.459-18.3Z"/><path fill="#DB652A" d="M275.312 32.998c.737-1.576 1.559-3.577 2.441-6.654 1.888-6.683 3.161-14.808 6.82-15.455 6.813-1.23 15.412 23.03 9.217 33.413-1.06 1.777-5.54 1.066-12.562-3.833-5.255-3.668-6.604-6-5.916-7.468v-.003Z"/><path fill="#FED5C3" d="M278.526 38.42a61.053 61.053 0 0 0 1.717-3.504c.523-1.3 1.057-2.879 1.689-5.063 1.242-4.084 1.415-8.744 3.307-9.172 3.302-.748 8.18 12.064 2.764 19.566-.537.743-1.49 1.89-2.488 2.884-1.299-.693-2.729-1.572-4.288-2.66a38.28 38.28 0 0 1-2.704-2.048l.003-.003Z"/><path fill="#DB652A" d="M202.096 88.898c5.394-7.672 8.374-12.225 10.931-23.46 2.549-11.17 6.968-18.096 8.549-20.407 1.988-2.907 15.805-18.846 42.603-15.523 26.798 3.323 36.434 22.085 37.497 25.479 1.536 4.893 3.363 10.41 3.327 21.858-.256 11.452 1.521 16.598 4.869 25.421 3.289 8.748 7.017 26.098-5.856 36.193-12.355 9.75-32.511 13.882-54.737 11.194-22.278-2.832-40.815-11.762-50.346-24.224-10.012-13.001-2.232-28.855 3.163-36.527v-.004Z"/><path fill="#FED5C3" d="M199.348 125.953c8.828-16.065 28.901-23.382 55.363-20.102 26.529 3.289 44.147 15.212 48.778 33.017-12.47 9.514-32.275 13.641-54.235 10.988-21.943-2.79-40.235-11.679-49.906-23.903Z"/><path fill="#7A001D" d="M211.883 69.937c1.297-6.189 4.085-18.29 11.746-27.661 6.554-8.019 21.723-15.162 40.662-12.814 19.249 2.389 31.397 13.474 36.084 22.393 5.631 10.714 4.904 23.313 4.648 29.633-2.285-12.263-17.165-31.761-42.873-34.746-25.353-3.145-43.041 9.357-50.263 23.196h-.004Z"/><path fill="#7A001D" d="m243.583 53.112-3.623 6.22c-7.764-1.887-8.814-3.31-8.814-3.31 1.132-9.114 10.374-15.468 20.645-14.194l20.895 2.592c10.271 1.274 17.682 9.693 16.551 18.807 0 0-1.741 1.027-9.378.999l-1.974-6.856-2.748 6.627c-4.097-.152-8.697-.47-15.326-1.294-6.67-.827-11.195-1.618-15.174-2.446l-1.054-7.142v-.003Z"/><path fill="#5B0D00" d="M248.274 104.385c.245-1.972 3.758-2.001 6.352-.852 2.642-.423 6.75.428 6.352 2.43-.397 2.002-4.909 5.205-6.935 4.956-2.197-.273-6.083-4.024-5.77-6.531l.001-.003Z"/><path fill="#fff" d="M279.412 86.418c10.737.184 13.238 10.264 13.238 10.264s-2.776 8.157-12.428 8.943c-8.604.7-14.018-4.309-14.018-4.309s1.845-14.87 13.208-14.898Z"/><path fill="#7C2900" d="M277.239 84.42c7.427-1.594 14.354 3.416 16.262 10.054 0 0-.461 1.313-.857 2.198-.087-.265-3.953-9.962-13.309-9.644-10.786.364-12.99 13.639-13.131 14.292-.177-1.358.677-14.676 11.035-16.9Z"/><path fill="#7C2900" d="M281.06 81.913a1.454 1.454 0 0 1 2.827.683l-.554 2.292a1.455 1.455 0 0 1-2.827-.683l.554-2.292ZM287.549 83.806a1.454 1.454 0 1 1 2.387 1.662l-1.277 1.833a1.454 1.454 0 1 1-2.387-1.662l1.277-1.833ZM291.927 87.996a1.454 1.454 0 0 1 2.096 2.017l-1.375 1.428a1.455 1.455 0 0 1-2.096-2.017l1.375-1.428Z"/><path fill="#000016" d="M277.631 104.16a7.351 7.351 0 1 1 1.157-14.656 7.351 7.351 0 0 1-1.157 14.656Z"/><path fill="#fff" d="M280.738 92.383c-.32 1.466.66 2.957 2.134 3.208 1.4.312 2.822-.677 3.142-2.143.32-1.465-.661-2.957-2.135-3.207-1.457-.387-2.882.602-3.141 2.142Z"/><path fill="#7C2900" d="M273.816 75.502s12.131-4.647 20.769 6.745c0 0-2.137-7.581-8.35-10.402-6.282-2.83-12.419 3.657-12.419 3.657Z"/><path fill="#fff" d="M235.091 80.922c-10.456-2.444-15.342 6.721-15.342 6.721s.7 8.591 9.868 11.706c8.173 2.781 14.645-.755 14.645-.755s1.845-14.87-9.167-17.675l-.004.003Z"/><path fill="#7C2900" d="M237.683 79.515c-6.815-3.36-14.752-.195-18.224 5.778 0 0 .127 1.386.294 2.34.149-.233 6.266-8.691 15.262-6.1 10.371 2.986 9.264 16.395 9.243 17.067.503-1.272 2.928-14.399-6.575-19.082v-.003Z"/><path fill="#7C2900" d="M234.571 78.515a1.454 1.454 0 1 1-2.908-.028l.022-2.358a1.454 1.454 0 0 1 2.909.028l-.023 2.358ZM228.628 78.482a1.455 1.455 0 0 1-2.721 1.029l-.79-2.09a1.455 1.455 0 0 1 2.721-1.028l.79 2.09ZM223.553 81.119a1.454 1.454 0 1 1-2.525 1.444l-.984-1.721a1.454 1.454 0 1 1 2.525-1.444l.984 1.72Z"/><path fill="#000016" d="M233.133 98.644a7.35 7.35 0 0 1-6.749-7.907 7.35 7.35 0 0 1 7.907-6.75 7.35 7.35 0 0 1-1.158 14.656Z"/><path fill="#fff" d="M236.241 86.864c-.32 1.466.66 2.957 2.134 3.208 1.399.311 2.821-.678 3.141-2.143.32-1.466-.66-2.957-2.134-3.208-1.457-.386-2.882.603-3.141 2.143Z"/><path fill="#7C2900" d="M244.056 71.814s-10.627-7.47-21.788 1.469c0 0 3.923-6.828 10.637-8.047 6.783-1.21 11.148 6.578 11.148 6.578"/><path fill="#DB652A" d="M219.749 87.646s2.099 5.628 10.258 8.548c8.127 2.909 14.252 2.403 14.252 2.403s-6.8 8.126-17.69 4.987c-11.919-3.434-6.82-15.941-6.82-15.941v.003ZM292.65 96.685s-3.746 4.905-11.95 5.795c-8.584.931-14.493-1.16-14.493-1.16s4.695 9.551 16.022 9.166c12.397-.419 10.424-13.8 10.424-13.8h-.003Z"/><path fill="#ED6D83" d="M243.804 127.147c1.92 1.965 4.014 2.89 7.95 3.38 3.977.492 6.185.102 8.523-1.377.79-.496 3.72-2.272 4.965-4.99.972-2.116 1.607-4.457.689-6.004-.651-1.095-3.15-.498-5.699-.686-2.024-.151-4.502-.228-7.21-.579-2.449-.315-4.615-.898-6.474-1.243-2.105-.389-4.216-1.472-5.494-.526-1.464 1.081-1.872 3.166-.973 6.215.877 2.968 3.026 5.097 3.72 5.807l.003.003Z"/><path fill="#FFA0B5" d="M243.804 127.144c1.92 1.965 4.014 2.89 7.95 3.379 3.977.493 6.185.103 8.523-1.376-1.291-2.812-3.744-3.804-7.818-4.311-4.072-.503-6.726-.129-8.658 2.304l.003.004Z"/><path fill="#fff" d="M248.366 116.028c1.412.307 2.969.65 4.656.869 2 .257 3.875.37 5.533.469-.292 2.32-1.33 4.393-5.638 3.855-3.895-.487-4.888-2.254-4.551-5.193Z"/><path fill="#6733AA" d="M50.03 146.069s7.476 22.7 46.184 15.113c1.72-1.853 2.466-4.271 3.98-6.894-12.15 1.038-35.405-12.998-36.334-33.017a98.33 98.33 0 0 1-13.83 24.798Z"/><path fill="#974CB9" d="M100.194 154.288s-26.216-16.234-50.163-8.219l13.059-24.592c20.97-1.802 40.546 10.435 47.93 29.91l-10.826 2.901Z"/><path fill="#6733AA" d="M150.21 119.226s4.876 23.397-32.44 36.18c-2.417-.745-4.27-2.466-6.894-3.98 10.849-5.125 24.163-28.96 14.958-46.761a123.394 123.394 0 0 0 24.376 14.561Z"/><path fill="#974CB9" d="M111.069 151.374s14.395-27.116 39.334-32.199l-23.606-14.768c-19.062 8.924-29.896 29.31-26.554 49.868l10.826-2.901Z"/><path fill="#7B46BF" d="m113.344 237.045 67.026-17.96c3.368-.903 4.741-4.055 3.211-6.688l-17.96-67.027-.052-.192c-.696-2.598-3.46-3.869-5.866-3.224l-67.026 17.959c-2.791.748-3.972 3.849-3.21 6.688l17.959 67.027.051.192c.645 2.406 3.413 3.882 5.867 3.225Z"/><path fill="#582798" d="m74.754 247.385 67.796-18.166.193-.052c2.598-.696 3.869-3.46 3.224-5.866l-18.166-67.797-.052-.192c-.696-2.598-3.46-3.869-5.866-3.224l-67.796 18.166-.193.051c-2.598.696-3.869 3.461-3.224 5.866l18.166 67.797.052.192c.644 2.406 3.46 3.869 5.866 3.225Z"/><path fill="#974CB9" d="m167.776 157.84-44.748 11.99c-1.633.644-3.524-.448-4.168-2.08l-.103-.385-3.61-13.473c-.643-1.633.397-3.716 2.081-4.168l.385-.103 44.748-11.99c1.633-.644 3.717.397 4.168 2.081l.103.385 3.61 13.472c1.08 1.722-.589 3.768-2.466 4.271Z"/><path fill="#8040B2" d="m125.096 169.276-70.394 18.862c-1.492.4-2.947-.603-3.295-1.902l-4.022-15.012c-.208-1.544.602-2.947 1.902-3.295l70.394-18.862c1.543-.207 2.947.603 3.295 1.902l4.009 14.964c.361 1.347-.641 2.802-1.889 3.343Z"/><path fill="#974CB9" d="m91.145 156.507-14.965 4.009 21.57 80.5 14.964-4.01-21.57-80.499Z"/><path fill="#6733AA" d="m152.734 140.004-14.964 4.009 21.57 80.5 14.964-4.01-21.57-80.499Z"/><path fill="#8040B2" d="m166.633 159.538-6.388 3.104-1.705 7.11-28.035-23.792 14.772-3.958 21.356 17.536Z"/><path fill="#E594C5" d="M140.765 65.259c4.841-1.39 6.584-3.303 7.553-9.04.193-.869 1.549-.869 1.549 0 1.162 5.91 2.904 7.65 7.552 9.214.775.347.775 1.39 0 1.39-4.648 1.391-6.584 3.303-7.552 8.866-.194.87-1.549.87-1.743 0-1.162-5.563-2.905-7.475-7.552-8.865-.775-.522-.775-1.565.193-1.565ZM73.667 92.408c4.294-1.233 5.84-2.929 6.699-8.017.171-.77 1.374-.77 1.374 0 1.03 5.242 2.576 6.784 6.698 8.172.687.308.687 1.233 0 1.233-4.122 1.233-5.84 2.93-6.698 7.863-.172.771-1.374.771-1.546 0-1.03-4.934-2.576-6.63-6.698-7.863-.687-.463-.687-1.388.171-1.388ZM98.112 43.557c7.157-2.097 9.733-4.98 11.165-13.63.286-1.31 2.29-1.31 2.29 0 1.717 8.912 4.294 11.533 11.164 13.892 1.145.524 1.145 2.097 0 2.097-6.87 2.097-9.733 4.98-11.164 13.367-.287 1.31-2.29 1.31-2.577 0-1.717-8.387-4.294-11.27-11.164-13.367-1.145-.786-1.145-2.359.286-2.359Z"/></g><defs><clipPath id="a"><path fill="#fff" d="M0 .093h375v205H0z"/></clipPath></defs></svg>